<svg xmlns="http://www.w3.org/2000/svg" width="65.528" height="65.528" viewBox="0 0 65.528 65.528">
  <path id="Path_22212" data-name="Path 22212" d="M0,1.563C10.412,2.19,16.226,8.89,20.895,17.112c4.8,8.459,5.992,17.456,3.9,27.363-2.877-4.8-4.2-10.293-9.408-14.107.228,1.384.141,2.129.46,2.6a56.7,56.7,0,0,1,7.139,15.867,9.872,9.872,0,0,0,.812,2.072c.989,1.738,2.355,2.064,4.036,1.012a6.528,6.528,0,0,0,1.139-.947c3.3-3.312,6.626-6.575,11.183-8.307-4.244-1.846-7.518.109-10.659,2.756,0-4.378.339-8.445-.063-12.438C28.246,21.248,23.391,11.3,13.76,4.2,11.253,2.356,8.057,1.316,5.039.327,2.877-.381,2.215.074,0,1.563" transform="translate(0 28.392) rotate(-45)" fill="#9b9b9b"/>
</svg>
