<svg id="Group_15165" data-name="Group 15165" xmlns="http://www.w3.org/2000/svg" xmlns:xlink="http://www.w3.org/1999/xlink" width="76.824" height="81.944" viewBox="0 0 76.824 81.944">
  <defs>
    <clipPath id="clip-path">
      <rect id="Rectangle_4911" data-name="Rectangle 4911" width="76.824" height="81.944" fill="none"/>
    </clipPath>
  </defs>
  <g id="Group_15154" data-name="Group 15154" clip-path="url(#clip-path)">
    <path id="Path_23237" data-name="Path 23237" d="M74.46,41.773A36.73,36.73,0,1,0,37.73,78.5a36.731,36.731,0,0,0,36.73-36.73" transform="translate(0.682 3.441)" fill="#e5e5e5"/>
    <path id="Path_23238" data-name="Path 23238" d="M74.46,37.73A36.73,36.73,0,1,0,37.73,74.46,36.731,36.731,0,0,0,74.46,37.73" transform="translate(0.682 0.682)" fill="#fff"/>
    <path id="Path_23239" data-name="Path 23239" d="M38.412,76.824A38.412,38.412,0,1,1,76.824,38.412,38.456,38.456,0,0,1,38.412,76.824m0-73.46A35.048,35.048,0,1,0,73.46,38.412,35.088,35.088,0,0,0,38.412,3.365" fill="#2f424f"/>
    <path id="Path_23240" data-name="Path 23240" d="M13.089,34.787a4.7,4.7,0,0,0,4.7,4.7H41.17a4.7,4.7,0,0,0,4.7-4.7v-.229H13.089Z" transform="translate(8.931 23.579)" fill="#99d7ef"/>
    <path id="Path_23241" data-name="Path 23241" d="M41.17,8.177H17.793a4.7,4.7,0,0,0-4.7,4.7v.229H45.872v-.229a4.7,4.7,0,0,0-4.7-4.7" transform="translate(8.931 5.579)" fill="#99d7ef"/>
    <path id="Path_23242" data-name="Path 23242" d="M41.852,59.854H18.473a6.391,6.391,0,0,1-6.384-6.384V13.561a6.392,6.392,0,0,1,6.384-6.384H41.852a6.393,6.393,0,0,1,6.384,6.384V53.469a6.392,6.392,0,0,1-6.384,6.384M18.473,10.542a3.024,3.024,0,0,0-3.02,3.02V53.469a3.023,3.023,0,0,0,3.02,3.02H41.852a3.023,3.023,0,0,0,3.02-3.02V13.561a3.024,3.024,0,0,0-3.02-3.02Z" transform="translate(8.248 4.897)" fill="#2f424f"/>
    <path id="Path_23243" data-name="Path 23243" d="M30.3,33.226c-1.526,1.526-2.715,1.083-6.09-2.291s-3.767-4.532-2.251-6.05l2.592-1.992c.688-.53.16-2.374-1.181-4.118s-2.988-2.73-3.678-2.2L17.1,18.566c-1.5,3.5-1.24,9.931,4.174,15.343s14.259,5.259,15.343,4.174l1.994-2.591c.528-.69-.456-2.335-2.2-3.678s-3.588-1.869-4.118-1.181Z" transform="translate(11.131 11.211)" fill="#52c3ef"/>
    <path id="Path_23244" data-name="Path 23244" d="M11.531,34.367a.841.841,0,0,1-.786-.538,21.434,21.434,0,0,1,0-15.334.842.842,0,1,1,1.571.6,19.732,19.732,0,0,0,0,14.125.844.844,0,0,1-.483,1.088.867.867,0,0,1-.3.056" transform="translate(6.364 12.251)" fill="#99d7ef"/>
    <path id="Path_23245" data-name="Path 23245" d="M13.081,48.1a.837.837,0,0,1-.638-.293,27.145,27.145,0,0,1,0-35.372.841.841,0,1,1,1.275,1.1,25.463,25.463,0,0,0,0,33.179.841.841,0,0,1-.638,1.39" transform="translate(4.019 8.287)" fill="#99d7ef"/>
    <path id="Path_23246" data-name="Path 23246" d="M35.37,34.368a.851.851,0,0,1-.3-.056.842.842,0,0,1-.485-1.087,19.765,19.765,0,0,0,0-14.128.841.841,0,0,1,1.571-.6,21.454,21.454,0,0,1,0,15.333.843.843,0,0,1-.786.54" transform="translate(23.559 12.251)" fill="#99d7ef"/>
    <path id="Path_23247" data-name="Path 23247" d="M35.841,48.1a.841.841,0,0,1-.638-1.39,25.463,25.463,0,0,0,0-33.179.841.841,0,0,1,1.275-1.1,27.145,27.145,0,0,1,0,35.372.837.837,0,0,1-.638.293" transform="translate(23.881 8.287)" fill="#99d7ef"/>
  </g>
</svg>
