<svg xmlns="http://www.w3.org/2000/svg" width="21.049" height="21.079" viewBox="0 0 21.049 21.079">
  <path id="whatsapp" d="M27.758,26.329l-.894.9a3.55,3.55,0,0,1-4.013.725A32.53,32.53,0,0,1,13.9,21.608a32.648,32.648,0,0,1-6.349-8.954A3.55,3.55,0,0,1,8.272,8.64l.894-.9a1.83,1.83,0,0,1,2.58,0l2.622,2.631a1.821,1.821,0,0,1,0,2.572l-1.13,1.13a19.975,19.975,0,0,0,3.5,4.7,19.865,19.865,0,0,0,4.68,3.5l1.13-1.13a1.8,1.8,0,0,1,2.53,0L27.7,23.758a1.8,1.8,0,0,1,.059,2.572Z" transform="translate(-7.219 -7.205)" fill="#fff"/>
</svg>
