<svg id="Group_15220" data-name="Group 15220" xmlns="http://www.w3.org/2000/svg" xmlns:xlink="http://www.w3.org/1999/xlink" width="223" height="158.044" viewBox="0 0 223 158.044">
  <defs>
    <clipPath id="clip-path">
      <rect id="Rectangle_4921" data-name="Rectangle 4921" width="197.306" height="156.328" fill="none"/>
    </clipPath>
  </defs>
  <g id="Group_15180" data-name="Group 15180" transform="translate(0)">
    <g id="Group_15179" data-name="Group 15179" clip-path="url(#clip-path)">
      <path id="Path_23355" data-name="Path 23355" d="M85.056,8.129H13.248a5.8,5.8,0,0,0-5.8,5.8V47.18a5.8,5.8,0,0,0,5.8,5.8H77.581l8.6,12a5.748,5.748,0,0,0,4.673,2.4V13.926a5.8,5.8,0,0,0-5.8-5.8M29.09,32.7a2.528,2.528,0,1,1,2.527-2.527A2.526,2.526,0,0,1,29.09,32.7m18.729,0a2.528,2.528,0,1,1,2.528-2.527A2.526,2.526,0,0,1,47.819,32.7m18.73,0a2.528,2.528,0,1,1,2.527-2.527A2.526,2.526,0,0,1,66.549,32.7" transform="translate(-2.17 -2.368)" fill="#00a773"/>
      <path id="Path_23356" data-name="Path 23356" d="M78.282.678H6.474a5.8,5.8,0,0,0-5.8,5.8V39.729a5.8,5.8,0,0,0,5.8,5.8H70.807l8.6,12a5.748,5.748,0,0,0,4.673,2.4V6.475A5.8,5.8,0,0,0,78.282.678ZM22.316,25.248a2.528,2.528,0,1,1,2.527-2.527A2.526,2.526,0,0,1,22.316,25.248Zm18.729,0a2.528,2.528,0,1,1,2.528-2.527A2.526,2.526,0,0,1,41.045,25.248Zm18.73,0A2.528,2.528,0,1,1,62.3,22.72,2.526,2.526,0,0,1,59.775,25.248Z" transform="translate(-0.197 -0.197)" fill="none" stroke="#000" stroke-linecap="round" stroke-linejoin="round" stroke-width="1.355"/>
      <path id="Path_23357" data-name="Path 23357" d="M98.976,112.756s-7.513-21.588-7.518-23.85c-.006-3.082,4.349-4.926,7-3.456,3.854,2.136,9.765,28.689,9.765,28.689Z" transform="translate(-26.64 -24.741)" fill="#fff"/>
      <path id="Path_23358" data-name="Path 23358" d="M98.976,112.756s-7.513-21.588-7.518-23.85c-.006-3.082,4.349-4.926,7-3.456,3.854,2.136,9.765,28.689,9.765,28.689Z" transform="translate(-26.64 -24.741)" fill="none" stroke="#000" stroke-linecap="round" stroke-linejoin="round" stroke-width="1.355"/>
      <path id="Path_23359" data-name="Path 23359" d="M113.3,129.449c-9.291,7.669-20.818,8.54-25.679,8.531-1.826-9.292-3.111-16.677-3.111-16.677l22.813-4.947s2.422,5.18,5.977,13.093" transform="translate(-24.616 -33.893)" fill="#fff"/>
      <path id="Path_23360" data-name="Path 23360" d="M113.3,129.449c-9.291,7.669-20.818,8.54-25.679,8.531-1.826-9.292-3.111-16.677-3.111-16.677l22.813-4.947S109.743,121.536,113.3,129.449Z" transform="translate(-24.616 -33.893)" fill="none" stroke="#000" stroke-linecap="round" stroke-linejoin="round" stroke-width="1.355"/>
      <path id="Path_23361" data-name="Path 23361" d="M86.826,113.347a6.362,6.362,0,0,1,4.32-4.32c3.543-1.037,6.827,5.7,7.6,9.419s.173,6.913-3.283,7-4.407-4.062-5.1-6.481-3.543-5.617-3.543-5.617" transform="translate(-25.291 -31.727)" fill="#fff"/>
      <path id="Path_23362" data-name="Path 23362" d="M86.826,113.347a6.362,6.362,0,0,1,4.32-4.32c3.543-1.037,6.827,5.7,7.6,9.419s.173,6.913-3.283,7-4.407-4.062-5.1-6.481S86.826,113.347,86.826,113.347Z" transform="translate(-25.291 -31.727)" fill="none" stroke="#000" stroke-linecap="round" stroke-linejoin="round" stroke-width="1.355"/>
      <path id="Path_23363" data-name="Path 23363" d="M172.978,146.759l-33.972,31.453,0,0-1.987,2.506c-2.664,2.736-8.214,6.7-17.884,6.476-14.419-.339-20.679-12.832-24.337-28l6.882-5.353a47.155,47.155,0,0,1,16.5-18.566c19.753-13.31,46.122-13.406,46.122-13.406Z" transform="translate(-27.612 -35.5)" fill="#1f1f1f"/>
      <path id="Path_23364" data-name="Path 23364" d="M172.978,146.759l-33.972,31.453,0,0-1.987,2.506c-2.664,2.736-8.214,6.7-17.884,6.476-14.419-.339-20.679-12.832-24.337-28l6.882-5.353a47.155,47.155,0,0,1,16.5-18.566c19.753-13.31,46.122-13.406,46.122-13.406Z" transform="translate(-27.612 -35.5)" fill="none" stroke="#000" stroke-linecap="round" stroke-linejoin="round" stroke-width="1.355"/>
      <path id="Path_23365" data-name="Path 23365" d="M134.908,182.229c-2.664,2.736-8.214,6.7-17.884,6.476-14.419-.339-20.679-12.832-24.337-28-.069-.286-.137-.571-.2-.86-.286-1.222-.568-2.47-.85-3.735-.156-.7-.31-1.4-.463-2.1-.125-.571-.25-1.145-.372-1.719q-.2-.929-.4-1.862c-.252-1.2-.5-2.388-.739-3.567l-.23-1.126c-.031-.163-.065-.326-.1-.487-.048-.245-.1-.488-.147-.73-.091-.454-.18-.9-.269-1.347-.062-.319-.128-.634-.187-.948-.077-.379-.152-.753-.223-1.125-.065-.329-.13-.658-.192-.982q-.075-.371-.144-.737l-.036-.18c-.041-.206-.079-.413-.12-.617a.129.129,0,0,0-.007-.043c-.052-.279-.106-.552-.158-.826-.048-.247-.1-.489-.14-.729-.052-.269-.1-.533-.154-.8,5.113.31,13.875-.828,24.133-9.14h0c.062.14.128.281.192.422.094.207.19.42.288.636.079.173.156.346.237.523.55,1.217,1.145,2.535,1.776,3.939.6,1.332,1.229,2.746,1.887,4.223,5.665,12.738,13.262,30.38,18.836,45.445" transform="translate(-25.504 -37.005)" fill="#1f1f1f"/>
      <path id="Path_23366" data-name="Path 23366" d="M134.908,182.229c-2.664,2.736-8.214,6.7-17.884,6.476-14.419-.339-20.679-12.832-24.337-28-.069-.286-.137-.571-.2-.86-.286-1.222-.568-2.47-.85-3.735-.156-.7-.31-1.4-.463-2.1-.125-.571-.25-1.145-.372-1.719q-.2-.929-.4-1.862c-.252-1.2-.5-2.388-.739-3.567l-.23-1.126c-.031-.163-.065-.326-.1-.487-.048-.245-.1-.488-.147-.73-.091-.454-.18-.9-.269-1.347-.062-.319-.128-.634-.187-.948-.077-.379-.152-.753-.223-1.125-.339-1.714-.656-3.361-.951-4.911,5.113.31,13.877-.828,24.135-9.14,1.227,2.7,2.722,6.013,4.381,9.743,1.92,4.315,4.061,9.195,6.27,14.345" transform="translate(-25.504 -37.005)" fill="none" stroke="#000" stroke-linecap="round" stroke-linejoin="round" stroke-width="1.355"/>
      <path id="Path_23367" data-name="Path 23367" d="M114.186,132.562c-9.291,7.669-20.818,8.54-25.679,8.531-.064-.329-.129-.658-.192-.982q-.071-.371-.144-.737l-.036-.18c-.038-.206-.079-.413-.12-.617a.129.129,0,0,0-.007-.043c-.053-.279-.106-.552-.159-.826-.047-.244-.094-.489-.139-.729-.053-.269-.1-.533-.154-.8,5.113.31,13.874-.828,24.133-9.14.064.14.127.281.194.422.094.207.19.42.288.636.077.173.156.346.237.523.549,1.217,1.145,2.535,1.776,3.939" transform="translate(-25.504 -37.005)" fill="#00a773"/>
      <path id="Path_23368" data-name="Path 23368" d="M114.186,132.562c-9.291,7.669-20.818,8.54-25.679,8.531-.064-.329-.129-.658-.192-.982q-.071-.371-.144-.737l-.036-.18c-.038-.206-.079-.413-.12-.617a.129.129,0,0,0-.007-.043c-.053-.279-.106-.552-.159-.826-.047-.244-.094-.489-.139-.729-.053-.269-.1-.533-.154-.8,5.113.31,13.874-.828,24.133-9.14.064.14.127.281.194.422.094.207.19.42.288.636.077.173.156.346.237.523C112.959,129.84,113.555,131.158,114.186,132.562Z" transform="translate(-25.504 -37.005)" fill="none" stroke="#000" stroke-linecap="round" stroke-linejoin="round" stroke-width="1.355"/>
      <path id="Path_23369" data-name="Path 23369" d="M80.922,116.808c-.722,2.455,1.729,11.838,7.086,10.715s.624-11.759-2.333-13.308c-1.814-.95-4.32,1.123-4.753,2.592" transform="translate(-23.535 -33.199)" fill="#fff"/>
      <path id="Path_23370" data-name="Path 23370" d="M80.922,116.808c-.722,2.455,1.729,11.838,7.086,10.715s.624-11.759-2.333-13.308C83.86,113.265,81.354,115.338,80.922,116.808Z" transform="translate(-23.535 -33.199)" fill="none" stroke="#000" stroke-linecap="round" stroke-linejoin="round" stroke-width="1.355"/>
      <path id="Path_23371" data-name="Path 23371" d="M110.994,115.829s-.756-4.59-3.608-4.935-12.574,5.444-11.947,7.864,2.534,4.437,6.113,3.37,9.442-6.3,9.442-6.3" transform="translate(-27.792 -32.298)" fill="#fff"/>
      <path id="Path_23372" data-name="Path 23372" d="M110.994,115.829s-.756-4.59-3.608-4.935-12.574,5.444-11.947,7.864,2.534,4.437,6.113,3.37a22.464,22.464,0,0,0,5.94-3.456" transform="translate(-27.792 -32.298)" fill="none" stroke="#000" stroke-linecap="round" stroke-linejoin="round" stroke-width="1.355"/>
      <path id="Path_23373" data-name="Path 23373" d="M177.8,121.721s26.2-4.148,42.276,15.381,17.513,46,17.859,53.431l-95.456-.029a65.66,65.66,0,0,1,2.42-35.256c6.709-18.694,32.9-33.528,32.9-33.528" transform="translate(-41.109 -35.348)" fill="#1f1f1f"/>
      <path id="Path_23374" data-name="Path 23374" d="M177.8,121.721s26.2-4.148,42.276,15.381,17.513,46,17.859,53.431l-95.456-.029a65.66,65.66,0,0,1,2.42-35.256" transform="translate(-41.109 -35.348)" fill="none" stroke="#000" stroke-linecap="round" stroke-linejoin="round" stroke-width="1.355"/>
      <path id="Path_23375" data-name="Path 23375" d="M239.082,170.553s2.787,12.422,1.75,34.975" transform="translate(-69.641 -49.68)" fill="none" stroke="#000" stroke-linecap="round" stroke-linejoin="round" stroke-width="1.355"/>
      <path id="Path_23376" data-name="Path 23376" d="M198.255,107.906v13.045a10.357,10.357,0,0,1-16.685,0V107.906Z" transform="translate(-52.889 -31.432)" fill="#00a773"/>
      <path id="Path_23377" data-name="Path 23377" d="M198.255,107.906v13.045a10.357,10.357,0,0,1-16.685,0V107.906Z" transform="translate(-52.889 -31.432)" fill="none" stroke="#000" stroke-linecap="round" stroke-linejoin="round" stroke-width="1.355"/>
      <path id="Path_23378" data-name="Path 23378" d="M197.5,106.04v11.046a8.77,8.77,0,0,1-14.13,0V106.04Z" transform="translate(-53.414 -30.888)" fill="#fff"/>
      <path id="Path_23379" data-name="Path 23379" d="M197.5,106.04v11.046a8.77,8.77,0,0,1-14.13,0V106.04Z" transform="translate(-53.414 -30.888)" fill="none" stroke="#000" stroke-linecap="round" stroke-linejoin="round" stroke-width="1.355"/>
      <path id="Path_23380" data-name="Path 23380" d="M210.228,109.443c-5.876,6.682-18.665,6.913-23.446-2.42s.32-31.108.32-31.108l-18.466.116s10.024,13.6,4.335,27.421c-4.33,10.531-13.8,14.109-19.906,10.125l0,0a11.607,11.607,0,0,1-4.475-5.974c-4.147-11.522,6.8-16.707,10.831-20.969s1.959-13.249,1.728-20.854,4.624-21.725,17.575-22.351c11.927-.576,21.022,10.6,19.755,26.73s3.917,18.78,7.143,21.315,10.485,11.291,4.609,17.974" transform="translate(-43.013 -12.643)" fill="#1f1f1f"/>
      <path id="Path_23381" data-name="Path 23381" d="M162.645,80.538c.855,8.242-8.065,12.448-10.83,16.466s-3.226,10.6,1.248,16.579a11.606,11.606,0,0,1-4.474-5.974c-4.148-11.522,6.8-16.707,10.83-20.969s1.959-13.249,1.729-20.854,4.623-21.725,17.575-22.351c-17.856,3.678-16.929,28.862-16.077,37.1" transform="translate(-43.013 -12.652)" fill="#fff"/>
      <path id="Path_23382" data-name="Path 23382" d="M178.721,43.425c-12.95.625-17.8,14.748-17.574,22.351s2.3,16.592-1.729,20.855S144.44,96.078,148.588,107.6s18.7,9.678,24.383-4.148-4.335-27.421-4.335-27.421l18.466-.115s-5.1,21.775-.319,31.108,17.57,9.1,23.446,2.42S208.846,94,205.619,91.47s-8.41-5.184-7.143-21.315S190.649,42.849,178.721,43.425Z" transform="translate(-43.013 -12.643)" fill="none" stroke="#000" stroke-linecap="round" stroke-linejoin="round" stroke-width="1.355"/>
      <path id="Path_23383" data-name="Path 23383" d="M201.244,79.242c0,10.053-6.364,17.683-14.213,17.683s-14.213-7.63-14.213-17.683,6.364-19.761,14.213-19.761,14.213,9.708,14.213,19.761" transform="translate(-50.339 -17.326)" fill="#fff"/>
      <path id="Path_23384" data-name="Path 23384" d="M201.244,79.242c0,10.053-6.364,17.683-14.213,17.683s-14.213-7.63-14.213-17.683,6.364-19.761,14.213-19.761S201.244,69.189,201.244,79.242Z" transform="translate(-50.339 -17.326)" fill="none" stroke="#000" stroke-linecap="round" stroke-linejoin="round" stroke-width="1.355"/>
      <path id="Path_23385" data-name="Path 23385" d="M184.719,85.254h-1.564V82.821a.782.782,0,1,1,1.564,0Z" transform="translate(-53.35 -23.897)" fill="#1f1f1f"/>
      <path id="Path_23386" data-name="Path 23386" d="M197.882,77.125c.075.886,4.7,1.436,4.832.416s-4.938-1.661-4.832-.416" transform="translate(-57.64 -22.266)" fill="#1f1f1f"/>
      <path id="Path_23387" data-name="Path 23387" d="M200.336,85.254h-1.565V82.821a.782.782,0,0,1,1.565,0Z" transform="translate(-57.899 -23.897)" fill="#1f1f1f"/>
      <path id="Path_23388" data-name="Path 23388" d="M198.469,86.453a1.789,1.789,0,0,1,1.993,0" transform="translate(-57.811 -25.096)" fill="none" stroke="#000" stroke-linecap="round" stroke-linejoin="round" stroke-width="1.355"/>
      <path id="Path_23389" data-name="Path 23389" d="M184.254,76.907c-.006.889-4.571,1.8-4.785.791S184.262,75.657,184.254,76.907Z" transform="translate(-52.275 -22.235)" fill="none" stroke="#000" stroke-miterlimit="10" stroke-width="0.425"/>
      <path id="Path_23390" data-name="Path 23390" d="M184.845,86.453a1.789,1.789,0,0,0-1.993,0" transform="translate(-53.262 -25.096)" fill="none" stroke="#000" stroke-linecap="round" stroke-linejoin="round" stroke-width="1.355"/>
      <path id="Path_23391" data-name="Path 23391" d="M191.174,92.834s-.327,1.663,1.291,1.5,1.659-1.911.5-1.953" transform="translate(-55.678 -26.908)" fill="none" stroke="#000" stroke-linecap="round" stroke-linejoin="round" stroke-width="1.355"/>
      <path id="Path_23392" data-name="Path 23392" d="M191.2,58.142s-5.588,15.842-19.76,17.546c0,0-3.563-23.528,14.118-24.8S201.975,75.52,201.975,75.52s-5.069-.566-10.772-17.378" transform="translate(-49.853 -14.811)" fill="#1f1f1f"/>
      <path id="Path_23393" data-name="Path 23393" d="M191.2,58.142s-5.588,15.842-19.76,17.546c0,0-3.563-23.528,14.118-24.8S201.975,75.52,201.975,75.52,196.906,74.954,191.2,58.142Z" transform="translate(-49.853 -14.811)" fill="none" stroke="#000" stroke-linecap="round" stroke-linejoin="round" stroke-width="1.355"/>
      <path id="Path_23394" data-name="Path 23394" d="M211.015,85.1s1.267-2.159,4.9-1.065,2.592,10.37-4.9,8.354Z" transform="translate(-61.466 -24.387)" fill="#fff"/>
      <path id="Path_23395" data-name="Path 23395" d="M212.149,84.238a4.8,4.8,0,0,1,3.965-.208c3.549,1.07,2.636,9.96-4.405,8.471" transform="translate(-61.667 -24.386)" fill="none" stroke="#000" stroke-linecap="round" stroke-linejoin="round" stroke-width="1.355"/>
      <path id="Path_23396" data-name="Path 23396" d="M213.995,88.423a2.084,2.084,0,0,1,3.226,1.019" transform="translate(-62.334 -25.634)" fill="none" stroke="#000" stroke-linecap="round" stroke-linejoin="round" stroke-width="1.355"/>
      <line id="Line_85" data-name="Line 85" y1="2.682" transform="translate(152.929 62.369)" fill="none" stroke="#000" stroke-linecap="round" stroke-linejoin="round" stroke-width="1.355"/>
      <path id="Path_23397" data-name="Path 23397" d="M197.277,101.38a4.439,4.439,0,0,1-1.409.151c-1.522-.064-3.051-.8-2.957-1.946.152-1.844,3.478-1.268,4.366-2.651s2.683-1.67,3,0c0,.029.01.055.014.084a3.767,3.767,0,0,1-3.017,4.361" transform="translate(-56.191 -27.902)" fill="#1f1f1f"/>
      <path id="Path_23398" data-name="Path 23398" d="M197.277,101.38a4.439,4.439,0,0,1-1.409.151c-1.522-.064-3.051-.8-2.957-1.946.152-1.844,3.478-1.268,4.366-2.651s2.683-1.67,3,0c0,.029.01.055.014.084A3.767,3.767,0,0,1,197.277,101.38Z" transform="translate(-56.191 -27.902)" fill="none" stroke="#000" stroke-linecap="round" stroke-linejoin="round" stroke-width="1.355"/>
      <path id="Path_23399" data-name="Path 23399" d="M198.436,101.806a4.439,4.439,0,0,1-1.409.151c-.228-1.313-.346-2.984.982-3.387,1.047-.319,1.627-1.86,3.444-1.125a3.767,3.767,0,0,1-3.017,4.361" transform="translate(-57.35 -28.327)" fill="#fff"/>
      <path id="Path_23400" data-name="Path 23400" d="M171.665,85.1s-1.267-2.159-4.9-1.065-2.592,10.37,4.9,8.354Z" transform="translate(-47.988 -24.387)" fill="#fff"/>
      <path id="Path_23401" data-name="Path 23401" d="M171.326,85.1s-1.267-2.159-4.9-1.065-2.592,10.37,4.9,8.354" transform="translate(-47.89 -24.387)" fill="none" stroke="#000" stroke-linecap="round" stroke-linejoin="round" stroke-width="1.355"/>
      <path id="Path_23402" data-name="Path 23402" d="M170.2,88.423a2.084,2.084,0,0,0-3.226,1.019" transform="translate(-48.638 -25.634)" fill="none" stroke="#000" stroke-linecap="round" stroke-linejoin="round" stroke-width="1.355"/>
      <line id="Line_86" data-name="Line 86" y1="2.682" transform="translate(120.297 62.369)" fill="none" stroke="#000" stroke-linecap="round" stroke-linejoin="round" stroke-width="1.355"/>
    </g>
  </g>
  <rect id="Rectangle_4971" data-name="Rectangle 4971" width="162" height="3" rx="1.5" transform="translate(61 155.044)" fill="#1f1f1f"/>
</svg>
