<svg id="Group_15166" data-name="Group 15166" xmlns="http://www.w3.org/2000/svg" xmlns:xlink="http://www.w3.org/1999/xlink" width="76.823" height="81.944" viewBox="0 0 76.823 81.944">
  <defs>
    <clipPath id="clip-path">
      <rect id="Rectangle_4914" data-name="Rectangle 4914" width="76.823" height="81.944" fill="none"/>
    </clipPath>
  </defs>
  <g id="Group_15160" data-name="Group 15160" clip-path="url(#clip-path)">
    <path id="Path_23270" data-name="Path 23270" d="M74.459,41.773A36.73,36.73,0,1,0,37.729,78.5a36.73,36.73,0,0,0,36.73-36.73" transform="translate(0.682 3.441)" fill="#e5e5e5"/>
    <path id="Path_23271" data-name="Path 23271" d="M74.459,37.73a36.73,36.73,0,1,0-36.73,36.73,36.73,36.73,0,0,0,36.73-36.73" transform="translate(0.682 0.682)" fill="#fff"/>
    <path id="Path_23272" data-name="Path 23272" d="M38.411,76.824A38.412,38.412,0,1,1,76.823,38.412,38.455,38.455,0,0,1,38.411,76.824m0-73.46A35.048,35.048,0,1,0,73.458,38.412,35.087,35.087,0,0,0,38.411,3.365" fill="#2f424f"/>
    <path id="Path_23273" data-name="Path 23273" d="M9.283,11.03V56.7l13.4-13.4H59.2V11.03Z" transform="translate(6.334 7.526)" fill="#52c3ef"/>
    <path id="Path_23274" data-name="Path 23274" d="M9.965,59.061a1.681,1.681,0,0,1-1.682-1.682V11.712A1.682,1.682,0,0,1,9.965,10.03H59.885a1.682,1.682,0,0,1,1.682,1.682V43.979a1.682,1.682,0,0,1-1.682,1.682H24.061L11.155,58.568a1.683,1.683,0,0,1-1.189.493m1.682-45.666V53.318L22.176,42.79a1.682,1.682,0,0,1,1.189-.493H58.2v-28.9Z" transform="translate(5.652 6.844)" fill="#2f424f"/>
    <path id="Path_23275" data-name="Path 23275" d="M38.12,31.166a11.2,11.2,0,1,0-4.505,4.039Z" transform="translate(11.912 9.513)" fill="#52c3ef"/>
    <path id="Path_23276" data-name="Path 23276" d="M29.007,37.539A12.044,12.044,0,1,1,39.171,31.96a.842.842,0,0,1-1.42-.905,10.343,10.343,0,1,0-4.165,3.738.841.841,0,1,1,.742,1.509,11.926,11.926,0,0,1-5.321,1.236" transform="translate(11.571 9.172)" fill="#fff"/>
    <path id="Path_23277" data-name="Path 23277" d="M31.6,20.879a5.7,5.7,0,0,0-5.21-4.194c-3.089,0-5.592,2.951-5.592,6.593s2.5,6.591,5.592,6.591a5.706,5.706,0,0,0,5.222-4.228Z" transform="translate(14.189 11.384)" fill="#52c3ef"/>
    <path id="Path_23278" data-name="Path 23278" d="M26.729,31.053c-3.546,0-6.433-3.334-6.433-7.434s2.887-7.432,6.433-7.432a6.562,6.562,0,0,1,6.008,4.769.841.841,0,1,1-1.6.53,4.833,4.833,0,0,0-4.411-3.617c-2.621,0-4.751,2.579-4.751,5.75s2.13,5.752,4.751,5.752a4.9,4.9,0,0,0,4.421-3.649.842.842,0,0,1,1.6.523,6.57,6.57,0,0,1-6.021,4.808" transform="translate(13.848 11.044)" fill="#fff"/>
    <path id="Path_23279" data-name="Path 23279" d="M31.567,25.662a3.054,3.054,0,0,1-3.383.575c-1.139-.665-1.388-2.734-.851-4.228Z" transform="translate(18.465 15.018)" fill="#52c3ef"/>
    <path id="Path_23280" data-name="Path 23280" d="M29.724,27.7a3.273,3.273,0,0,1-1.622-.392c-1.583-.925-1.866-3.44-1.218-5.24a.841.841,0,0,1,1.583.569c-.441,1.225-.2,2.818.483,3.218a2.243,2.243,0,0,0,2.364-.444A.841.841,0,1,1,32.5,26.6a3.955,3.955,0,0,1-2.779,1.1" transform="translate(18.122 14.677)" fill="#fff"/>
    <path id="Path_23281" data-name="Path 23281" d="M27.217,20.476v0Z" transform="translate(18.57 11.788)" fill="#52c3ef"/>
    <path id="Path_23282" data-name="Path 23282" d="M27.558,21.658a.841.841,0,0,1-.841-.841v-3.2a.841.841,0,1,1,1.682,0v3.2a.841.841,0,0,1-.841.841" transform="translate(18.229 11.446)" fill="#fff"/>
  </g>
</svg>
