<svg xmlns="http://www.w3.org/2000/svg" width="104" height="95.189" viewBox="0 0 104 95.189">
  <g id="Group_14802" data-name="Group 14802" transform="translate(-362.685 -18.184)">
    <path id="Path_22197" data-name="Path 22197" d="M71.279,96.95h0" transform="translate(313.091 -49.27)" fill="#504f4f"/>
    <path id="Path_22198" data-name="Path 22198" d="M70.807,81.032c-.009-.173-.015-.347-.015-.523a9.863,9.863,0,0,1,1.2-4.727,9.866,9.866,0,0,0-1.2,4.727c0,.176.006.35.015.523" transform="translate(313.43 -34.543)" fill="#504f4f"/>
    <path id="Path_22199" data-name="Path 22199" d="M76.057,71.813q-.143.191-.277.389t-.259.4q.249-.409.535-.792" transform="translate(310.139 -31.782)" fill="#504f4f"/>
    <path id="Path_22200" data-name="Path 22200" d="M75.169,63.536a1.973,1.973,0,0,0-2.675.792,9.906,9.906,0,0,1-14.218,3.53c.486-.054.974-.121,1.467-.216a19.539,19.539,0,0,0,3.925-1.2c7.187-3.056,11.312-9.724,9.668-15.287h0a7.7,7.7,0,0,0-4.66-4.522c-.063-.024-.121-.047-.174-.07A13.863,13.863,0,0,0,51.375,65.817c-.214-.034-.426-.073-.632-.119a7.539,7.539,0,0,1-4.134-2.226.312.312,0,0,0-.178.071,10.431,10.431,0,0,0,5.605,3.82c.1.03.208.054.311.082-.047-.069-.1-.134-.146-.2.046.07.1.135.146.2A13.857,13.857,0,0,0,75.96,66.211a1.973,1.973,0,0,0-.792-2.675M54.445,56.19a9.9,9.9,0,0,1,1.094-2.136,10,10,0,0,1,.884-1.125q-.321.353-.607.735a10.013,10.013,0,0,1,2.016-2.016q-.191.143-.375.295a9.98,9.98,0,0,1,1.167-.83q.2-.125.416-.239a9.855,9.855,0,0,1,4.726-1.2h0c.236,0,.47.012.7.029h0c.1.007.2.016.292.026.12.012.239.028.358.044.2.027.389.061.581.1l.124.026c.142.03.282.064.422.1.767.214,3.162,1.033,3.668,3.02.723,3.94-3.081,8.827-9.108,11.39a20.024,20.024,0,0,1-4.725,1.367l-.068.009a10.052,10.052,0,0,0,1.111,1.179,10.052,10.052,0,0,1-1.111-1.179h0L56,65.771c-.1-.123-.192-.248-.284-.375-.029-.04-.058-.082-.087-.123q-.1-.146-.2-.3l-.081-.125c-.086-.138-.171-.277-.25-.42L55.1,64.42c-.078-.139-.152-.281-.223-.425-.022-.045-.043-.09-.065-.135-.052-.109-.1-.218-.15-.329-.02-.046-.04-.091-.059-.137-.063-.152-.124-.305-.18-.461l0-.01c-.055-.153-.1-.309-.152-.465-.014-.048-.028-.1-.041-.144q-.051-.178-.095-.359c-.012-.048-.024-.1-.035-.145-.038-.164-.072-.329-.1-.5h0c-.029-.167-.053-.335-.073-.5-.006-.05-.011-.1-.016-.151q-.02-.19-.033-.382c0-.051-.007-.1-.01-.153-.009-.173-.015-.347-.015-.523a9.882,9.882,0,0,1,.6-3.409" transform="translate(330.38 -13.633)" fill="#504f4f"/>
    <path id="Path_22201" data-name="Path 22201" d="M53.071,2.591,23.317,0,0,19l7.119.286L7,21.258a.757.757,0,0,0-.368.6l-.637,10.4a.76.76,0,0,0,.758.806H8.025a.76.76,0,0,0,.758-.806l-.637-10.4a.757.757,0,0,0-.368-.6l-.12-1.952,7.551.3.19,3.267A16.923,16.923,0,0,1,41.95,14.29L40.8,12.56Z" transform="translate(362.685 18.184)" fill="#00a773"/>
    <path id="Path_22202" data-name="Path 22202" d="M105.423,73.315a1.748,1.748,0,1,0-1.748-1.747,1.748,1.748,0,0,0,1.748,1.747" transform="translate(290.55 -30.395)" fill="#504f4f"/>
    <path id="Path_22203" data-name="Path 22203" d="M83.382,81.856l2.271,1.322-1.425.642a.657.657,0,1,0,.54,1.2l1.742-.785.063-.033a1.169,1.169,0,0,0,.576-.953,1.149,1.149,0,0,0-.469-.99l-2.637-1.539a.658.658,0,1,0-.662,1.137" transform="translate(304.897 -37.916)" fill="#504f4f"/>
    <path id="Path_22204" data-name="Path 22204" d="M176.041,8.252a1.973,1.973,0,0,0-1.973,1.973V23.762a13.87,13.87,0,1,0,0,19.35v2.221a1.973,1.973,0,1,0,3.945,0V10.225a1.973,1.973,0,0,0-1.973-1.973m-11.9,35.109a9.924,9.924,0,1,1,9.924-9.924,9.935,9.935,0,0,1-9.924,9.924" transform="translate(258.127 12.442)" fill="#504f4f"/>
    <path id="Path_22205" data-name="Path 22205" d="M267.083,76.47a13.167,13.167,0,0,1-13.152-13.152V52.14a1.973,1.973,0,0,1,3.946,0V63.319a9.206,9.206,0,1,0,18.412,0V52.14a1.973,1.973,0,0,1,3.946,0V63.319A13.167,13.167,0,0,1,267.083,76.47" transform="translate(186.006 -16.721)" fill="#504f4f"/>
    <path id="Path_22206" data-name="Path 22206" d="M142.458,163.187h-1.28a53.936,53.936,0,0,1-16.358-2.537l-13.9-4.42a7.845,7.845,0,0,0-8.511,2.618l-3.22,4.1-3.218-4.105a7.841,7.841,0,0,0-8.509-2.617l-13.905,4.42a53.92,53.92,0,0,1-16.358,2.538h-1.28V155h1.28a45.75,45.75,0,0,0,13.879-2.153l13.905-4.42a16.074,16.074,0,0,1,14.208,2.28,16.076,16.076,0,0,1,14.208-2.28l13.9,4.42A45.759,45.759,0,0,0,141.178,155h1.28Z" transform="translate(323.782 -84.573)" fill="#00a773"/>
    <path id="Path_22207" data-name="Path 22207" d="M65.609,214.454a10.442,10.442,0,0,0-7.434,3.1v-1.582a1.521,1.521,0,1,0-3.042,0V242.4a1.521,1.521,0,0,0,3.042,0V232.3a10.474,10.474,0,1,0,7.434-17.85m0,17.91a7.434,7.434,0,1,1,7.434-7.434,7.442,7.442,0,0,1-7.434,7.434" transform="translate(324.325 -131.028)" fill="#504f4f"/>
    <path id="Path_22208" data-name="Path 22208" d="M147.772,214.453a1.521,1.521,0,0,0-1.521,1.521v2.1a10.476,10.476,0,1,0,0,14.747v1.582a1.521,1.521,0,1,0,3.042,0V215.974a1.521,1.521,0,0,0-1.521-1.521m-8.955,18.433a7.434,7.434,0,1,1,7.434-7.434,7.442,7.442,0,0,1-7.434,7.434" transform="translate(273.388 -131.027)" fill="#504f4f"/>
    <path id="Path_22209" data-name="Path 22209" d="M220.98,214.454a1.521,1.521,0,0,0-1.521,1.521v1.582a10.476,10.476,0,1,0,0,14.747v1.568c0,.009,0,.018,0,.027s0,.017,0,.026a7.442,7.442,0,0,1-7.434,7.434,1.521,1.521,0,0,0,0,3.042A10.488,10.488,0,0,0,222.5,233.925c0-.009,0-.018,0-.026s0-.018,0-.027v-17.9a1.521,1.521,0,0,0-1.521-1.521m-8.955,17.91a7.434,7.434,0,1,1,7.434-7.434,7.443,7.443,0,0,1-7.434,7.434" transform="translate(222.452 -131.028)" fill="#504f4f"/>
    <path id="Path_22210" data-name="Path 22210" d="M295.61,227.862a1.521,1.521,0,0,0-2.063.611,7.436,7.436,0,1,1-1.38-8.9,10.271,10.271,0,0,1-7.93,5.664,1.521,1.521,0,1,0,.382,3.018,13.317,13.317,0,0,0,10.742-8.383,1.756,1.756,0,0,0-.273-1.615,10.475,10.475,0,1,0,1.133,11.665,1.521,1.521,0,0,0-.61-2.063" transform="translate(170.28 -131.028)" fill="#504f4f"/>
  </g>
</svg>
