<svg xmlns="http://www.w3.org/2000/svg" xmlns:xlink="http://www.w3.org/1999/xlink" width="225.932" height="177.834" viewBox="0 0 225.932 177.834">
  <defs>
    <clipPath id="clip-path">
      <rect id="Rectangle_4973" data-name="Rectangle 4973" width="74.024" height="48.344" fill="none"/>
    </clipPath>
    <clipPath id="clip-path-3">
      <rect id="Rectangle_4975" data-name="Rectangle 4975" width="75.116" height="50.057" fill="none"/>
    </clipPath>
  </defs>
  <g id="Group_15867" data-name="Group 15867" transform="translate(-1038.067 -1338.854)">
    <g id="Group_15219" data-name="Group 15219" transform="translate(1038.742 1351.649)">
      <rect id="Rectangle_4972" data-name="Rectangle 4972" width="161.587" height="2.835" rx="1.417" transform="translate(63.67 159.219)" fill="#1f1f1f"/>
      <g id="Group_15178" data-name="Group 15178" transform="translate(0 0)">
        <g id="Group_15173" data-name="Group 15173" transform="translate(29.476 123.548)">
          <rect id="Rectangle_4916" data-name="Rectangle 4916" width="27.337" height="10.54" transform="translate(2.139 1.59)" fill="none" stroke="#000" stroke-linecap="round" stroke-linejoin="round" stroke-width="1.35"/>
          <path id="Path_23292" data-name="Path 23292" d="M97.885,229.618H70.828a1.258,1.258,0,1,1,0-2.516H97.885a.764.764,0,0,0,.761-.761v-7.034a.764.764,0,0,0-.761-.761H70.828a1.258,1.258,0,0,1,0-2.516H97.885a3.28,3.28,0,0,1,3.277,3.277v7.034a3.285,3.285,0,0,1-3.277,3.283Z" transform="translate(-69.57 -216.03)" fill="#1f1f1f"/>
          <path id="Path_23293" data-name="Path 23293" d="M97.885,229.618H70.828a1.258,1.258,0,1,1,0-2.516H97.885a.764.764,0,0,0,.761-.761v-7.034a.764.764,0,0,0-.761-.761H70.828a1.258,1.258,0,0,1,0-2.516H97.885a3.28,3.28,0,0,1,3.277,3.277v7.034a3.285,3.285,0,0,1-3.277,3.283Z" transform="translate(-69.57 -216.03)" fill="none" stroke="#000" stroke-linecap="round" stroke-linejoin="round" stroke-width="1.35"/>
          <line id="Line_81" data-name="Line 81" x1="15.344" transform="translate(14.709 4.81)" fill="none" stroke="#000" stroke-linecap="round" stroke-linejoin="round" stroke-width="1.35"/>
          <line id="Line_82" data-name="Line 82" x1="17.277" transform="translate(12.776 8.018)" fill="none" stroke="#000" stroke-linecap="round" stroke-linejoin="round" stroke-width="1.35"/>
        </g>
        <g id="Group_15174" data-name="Group 15174" transform="translate(0 137.514)">
          <rect id="Rectangle_4917" data-name="Rectangle 4917" width="57.642" height="18.964" transform="translate(1.882 2.305)" fill="#fff"/>
          <rect id="Rectangle_4918" data-name="Rectangle 4918" width="57.642" height="18.964" transform="translate(1.882 2.305)" fill="none" stroke="#000" stroke-linecap="round" stroke-linejoin="round" stroke-width="1.35"/>
          <line id="Line_83" data-name="Line 83" x2="25.009" transform="translate(1.882 8.802)" fill="none" stroke="#000" stroke-linecap="round" stroke-linejoin="round" stroke-width="1.35"/>
          <line id="Line_84" data-name="Line 84" x2="31.987" transform="translate(1.882 14.784)" fill="none" stroke="#000" stroke-linecap="round" stroke-linejoin="round" stroke-width="1.35"/>
          <path id="Path_23294" data-name="Path 23294" d="M79.372,263.6H22.308a4.282,4.282,0,0,1-4.278-4.278V244.728a4.282,4.282,0,0,1,4.278-4.278H79.372a1.882,1.882,0,1,1,0,3.763H22.308a.516.516,0,0,0-.515.515v14.595a.516.516,0,0,0,.515.515H79.372a1.882,1.882,0,0,1,0,3.763Z" transform="translate(-18.03 -240.45)" fill="#00a773"/>
          <path id="Path_23295" data-name="Path 23295" d="M79.372,263.6H22.308a4.282,4.282,0,0,1-4.278-4.278V244.728a4.282,4.282,0,0,1,4.278-4.278H79.372a1.882,1.882,0,1,1,0,3.763H22.308a.516.516,0,0,0-.515.515v14.595a.516.516,0,0,0,.515.515H79.372a1.882,1.882,0,0,1,0,3.763Z" transform="translate(-18.03 -240.45)" fill="none" stroke="#000" stroke-linecap="round" stroke-linejoin="round" stroke-width="1.35"/>
        </g>
        <g id="Group_15175" data-name="Group 15175" transform="translate(71.645 35.549)">
          <path id="Path_23297" data-name="Path 23297" d="M281.638,226.243l-60.485-1.6-60.485,1.6c-9.625-16.351-1.464-39.3,16.734-57.917,9.231-9.442,20.777-13.4,29.911-15a67.056,67.056,0,0,1,13.834-1,66.235,66.235,0,0,1,12.4.761c9.339,1.435,21.629,5.29,31.352,15.236,18.2,18.615,26.359,41.566,16.734,57.917Z" transform="translate(-148.993 -100.743)" fill="#00a773"/>
          <path id="Path_23298" data-name="Path 23298" d="M281.638,226.243l-60.485-1.6-60.485,1.6c-9.625-16.351-1.464-39.3,16.734-57.917,9.231-9.442,20.777-13.4,29.911-15a67.056,67.056,0,0,1,13.834-1,66.235,66.235,0,0,1,12.4.761c9.339,1.435,21.629,5.29,31.352,15.236,18.2,18.615,26.359,41.566,16.734,57.917Z" transform="translate(-148.993 -100.743)" fill="none" stroke="#000" stroke-linecap="round" stroke-linejoin="round" stroke-width="1.35"/>
          <path id="Path_23299" data-name="Path 23299" d="M160.62,227.475s5.988-6.182,13.583-3.895c7.366,2.225,12.227,11.547,11.478,16.705-.389,2.688-4.335,4.163-8.516.949s-16.539-13.766-16.539-13.766Z" transform="translate(-150.717 -131.045)" fill="#1f1f1f"/>
          <path id="Path_23300" data-name="Path 23300" d="M160.62,227.475s5.988-6.182,13.583-3.895c7.366,2.225,12.227,11.547,11.478,16.705-.389,2.688-4.335,4.163-8.516.949s-16.539-13.766-16.539-13.766Z" transform="translate(-150.717 -131.045)" fill="none" stroke="#000" stroke-linecap="round" stroke-linejoin="round" stroke-width="1.35"/>
          <path id="Path_23301" data-name="Path 23301" d="M359.494,227.475s-5.988-6.182-13.583-3.895c-7.366,2.225-12.227,11.547-11.478,16.705.389,2.688,4.335,4.163,8.516.949s16.539-13.766,16.539-13.766Z" transform="translate(-225.093 -131.045)" fill="#1f1f1f"/>
          <path id="Path_23302" data-name="Path 23302" d="M359.494,227.475s-5.988-6.182-13.583-3.895c-7.366,2.225-12.227,11.547-11.478,16.705.389,2.688,4.335,4.163,8.516.949s16.539-13.766,16.539-13.766Z" transform="translate(-225.093 -131.045)" fill="none" stroke="#000" stroke-linecap="round" stroke-linejoin="round" stroke-width="1.35"/>
          <path id="Path_23303" data-name="Path 23303" d="M260.768,162.949c-.578.04-1.19.063-1.83.063-.509,0-1-.011-1.464-.034-12.765-.641-12.187-9.642-12.187-9.642h0a67.059,67.059,0,0,1,13.834-1,66.235,66.235,0,0,1,12.4.761s1.544,9.042-10.752,9.854Z" transform="translate(-186.961 -100.748)" fill="#1f1f1f"/>
          <path id="Path_23304" data-name="Path 23304" d="M270.247,142.57v9.482s-2.23,3.065-7.9,3.065-7.909-3.065-7.909-3.065V142.57Z" transform="translate(-190.881 -96.582)" fill="#fff"/>
          <path id="Path_23305" data-name="Path 23305" d="M270.247,142.57v9.482s-2.23,3.065-7.9,3.065-7.909-3.065-7.909-3.065V142.57Z" transform="translate(-190.881 -96.582)" fill="none" stroke="#000" stroke-linecap="round" stroke-linejoin="round" stroke-width="1.35"/>
          <path id="Path_23306" data-name="Path 23306" d="M271.618,100.134c0,11.244-7.12,19.782-15.9,19.782s-15.9-8.533-15.9-19.782,7.12-22.1,15.9-22.1S271.618,88.89,271.618,100.134Z" transform="translate(-184.622 -68.953)" fill="#fff"/>
          <path id="Path_23307" data-name="Path 23307" d="M271.618,100.134c0,11.244-7.12,19.782-15.9,19.782s-15.9-8.533-15.9-19.782,7.12-22.1,15.9-22.1S271.618,88.89,271.618,100.134Z" transform="translate(-184.622 -68.953)" fill="none" stroke="#000" stroke-linecap="round" stroke-linejoin="round" stroke-width="1.35"/>
          <path id="Path_23308" data-name="Path 23308" d="M270.774,88.987c-.1.292-.212.56-.315.8a10.563,10.563,0,0,1-.892,1.7,4.416,4.416,0,0,1-.526.686c-.126.063-.252.12-.377.177-.2.1-.4.183-.6.269q-.214.094-.429.172c-.126.051-.257.1-.383.149C252.376,98.475,241.8,80.626,241.8,80.626a20.5,20.5,0,0,1-5.4,14.263c-.217.223-.383.372-.469.452-.046.046-.074.069-.074.069-.286-.337-.555-.681-.818-1.018-.057-.074-.114-.149-.166-.223-.315-.423-.606-.841-.881-1.258a22.417,22.417,0,0,1-1.207-2.042,19.514,19.514,0,0,1-2.179-7.486c-.772-11,9.03-20.177,18.175-21.069,12.365-1.207,14.784,5.021,14.784,5.021a.09.09,0,0,0,.023-.006c1.624-.44,8.35,1.287,8.539,11.461a28.849,28.849,0,0,1-1.344,10.2Z" transform="translate(-180.656 -62.159)" fill="#00a773"/>
          <path id="Path_23309" data-name="Path 23309" d="M235.82,100.413l-2.07-.509.635-2.6c-.24-1.813-1.561-13.749,4.735-21.086,3.18-3.706,7.749-5.582,13.588-5.582,6.577,0,11.575,2.076,14.852,6.165,6.474,8.07,3.837,21.017,3.511,22.464l-2.082-.463c.3-1.35,2.757-13.377-3.094-20.669-2.86-3.563-7.3-5.364-13.194-5.364-5.181,0-9.208,1.624-11.964,4.833-6.045,7.029-4.238,19.468-4.221,19.593l.034.206-.738,3Z" transform="translate(-182.024 -65.79)" fill="#fff"/>
          <path id="Path_23310" data-name="Path 23310" d="M235.82,100.413l-2.07-.509.635-2.6c-.24-1.813-1.561-13.749,4.735-21.086,3.18-3.706,7.749-5.582,13.588-5.582,6.577,0,11.575,2.076,14.852,6.165,6.474,8.07,3.837,21.017,3.511,22.464l-2.082-.463c.3-1.35,2.757-13.377-3.094-20.669-2.86-3.563-7.3-5.364-13.194-5.364-5.181,0-9.208,1.624-11.964,4.833-6.045,7.029-4.238,19.468-4.221,19.593l.034.206-.738,3Z" transform="translate(-182.024 -65.79)" fill="none" stroke="#000" stroke-linecap="round" stroke-linejoin="round" stroke-width="1.35"/>
          <path id="Path_23311" data-name="Path 23311" d="M275.028,111.59c-.275.469,3.14,1.882,3.626,1.4S275.411,110.926,275.028,111.59Z" transform="translate(-199.688 -83.251)"/>
          <path id="Path_23312" data-name="Path 23312" d="M276.259,121.181h0a.627.627,0,0,1-.629-.629v-1.533a.627.627,0,0,1,.629-.629h0a.627.627,0,0,1,.629.629v1.533A.627.627,0,0,1,276.259,121.181Z" transform="translate(-199.952 -86.231)"/>
          <path id="Path_23313" data-name="Path 23313" d="M259.469,121.181h0a.627.627,0,0,1-.629-.629v-1.533a.627.627,0,0,1,.629-.629h0a.627.627,0,0,1,.629.629v1.533A.627.627,0,0,1,259.469,121.181Z" transform="translate(-192.765 -86.231)"/>
          <path id="Path_23314" data-name="Path 23314" d="M275.22,123.076a1.544,1.544,0,0,1,1.727,0" transform="translate(-199.777 -88.126)" fill="none" stroke="#000" stroke-linecap="round" stroke-linejoin="round" stroke-width="1.35"/>
          <path id="Path_23315" data-name="Path 23315" d="M265.42,135.586s4.7-.417,7.114-3.906" transform="translate(-195.581 -91.921)" fill="none" stroke="#000" stroke-linecap="round" stroke-linejoin="round" stroke-width="1.35"/>
          <path id="Path_23316" data-name="Path 23316" d="M258.873,111.59c.274.469-3.14,1.882-3.626,1.4S258.49,110.926,258.873,111.59Z" transform="translate(-191.208 -83.251)"/>
          <path id="Path_23317" data-name="Path 23317" d="M260.157,123.076a1.545,1.545,0,0,0-1.727,0" transform="translate(-192.589 -88.126)" fill="none" stroke="#000" stroke-linecap="round" stroke-linejoin="round" stroke-width="1.35"/>
          <path id="Path_23318" data-name="Path 23318" d="M265.727,124.149s-.366,1.859,1.447,1.676,1.859-2.139.555-2.185" transform="translate(-195.7 -88.479)" fill="none" stroke="#000" stroke-linecap="round" stroke-linejoin="round" stroke-width="1.35"/>
          <path id="Path_23319" data-name="Path 23319" d="M166.63,223.719c11.169,3.6,9.945,27.829,3.443,32.93H146.088s-1.035-14.258,3.243-22.436,11.821-12.256,17.306-10.489Z" transform="translate(-144.449 -131.15)" fill="#fff"/>
          <path id="Path_23320" data-name="Path 23320" d="M166.63,223.719c11.169,3.6,9.945,27.829,3.443,32.93H146.088s-1.035-14.258,3.243-22.436,11.821-12.256,17.306-10.489Z" transform="translate(-144.449 -131.15)" fill="none" stroke="#000" stroke-linecap="round" stroke-linejoin="round" stroke-width="1.35"/>
          <path id="Path_23321" data-name="Path 23321" d="M159.73,270.147h13.463c1.041,2.659,6.125,2.825,11.152,0,.029-.017.057-.029.086-.046a4.915,4.915,0,0,0,2.476-4.284v-.543A4.906,4.906,0,0,0,184.431,261l-.034-.017c-1.115-.629-4.6.212-6.485-.28a18.229,18.229,0,0,1-5.891-3.655.265.265,0,0,0-.04-.04,6.32,6.32,0,0,0-8.007-1.241c-2.768,1.51-3.837,9.276-4.244,14.389Z" transform="translate(-150.336 -144.648)" fill="#fff"/>
          <path id="Path_23322" data-name="Path 23322" d="M159.73,270.147h13.463c1.041,2.659,6.125,2.825,11.152,0,.029-.017.057-.029.086-.046a4.915,4.915,0,0,0,2.476-4.284v-.543A4.906,4.906,0,0,0,184.431,261l-.034-.017c-1.115-.629-4.6.212-6.485-.28a18.229,18.229,0,0,1-5.891-3.655.265.265,0,0,0-.04-.04,6.32,6.32,0,0,0-8.007-1.241c-2.768,1.51-3.837,9.276-4.244,14.389Z" transform="translate(-150.336 -144.648)" fill="none" stroke="#000" stroke-linecap="round" stroke-linejoin="round" stroke-width="1.35"/>
          <path id="Path_23323" data-name="Path 23323" d="M194.51,275.793c-.08.046-.154.092-.234.132-5.033,2.825-10.111,2.659-11.152,0a3.574,3.574,0,0,1,0-2.339c1.636-5.507,7.292-5.227,7.292-5.227" transform="translate(-160.267 -150.431)" fill="none" stroke="#000" stroke-linecap="round" stroke-linejoin="round" stroke-width="1.35"/>
          <path id="Path_23324" data-name="Path 23324" d="M350.6,223.719c-11.169,3.6-9.945,27.829-3.443,32.93h23.986s1.035-14.258-3.243-22.436S356.08,221.958,350.6,223.725Z" transform="translate(-228.462 -131.15)" fill="#fff"/>
          <path id="Path_23325" data-name="Path 23325" d="M350.6,223.719c-11.169,3.6-9.945,27.829-3.443,32.93h23.986s1.035-14.258-3.243-22.436S356.08,221.958,350.6,223.725Z" transform="translate(-228.462 -131.15)" fill="none" stroke="#000" stroke-linecap="round" stroke-linejoin="round" stroke-width="1.35"/>
          <path id="Path_23326" data-name="Path 23326" d="M358.877,270.147H345.414c-1.041,2.659-6.125,2.825-11.152,0-.029-.017-.057-.029-.086-.046a4.915,4.915,0,0,1-2.476-4.284v-.543A4.906,4.906,0,0,1,334.176,261l.034-.017c1.115-.629,4.6.212,6.485-.28a18.229,18.229,0,0,0,5.891-3.655.265.265,0,0,1,.04-.04,6.32,6.32,0,0,1,8.007-1.241c2.768,1.51,3.837,9.276,4.244,14.389Z" transform="translate(-223.956 -144.648)" fill="#fff"/>
          <path id="Path_23327" data-name="Path 23327" d="M358.877,270.147H345.414c-1.041,2.659-6.125,2.825-11.152,0-.029-.017-.057-.029-.086-.046a4.915,4.915,0,0,1-2.476-4.284v-.543A4.906,4.906,0,0,1,334.176,261l.034-.017c1.115-.629,4.6.212,6.485-.28a18.229,18.229,0,0,0,5.891-3.655.265.265,0,0,1,.04-.04,6.32,6.32,0,0,1,8.007-1.241c2.768,1.51,3.837,9.276,4.244,14.389Z" transform="translate(-223.956 -144.648)" fill="none" stroke="#000" stroke-linecap="round" stroke-linejoin="round" stroke-width="1.35"/>
          <path id="Path_23328" data-name="Path 23328" d="M339.865,268.358s5.662-.28,7.292,5.227a3.5,3.5,0,0,1,0,2.339c-1.041,2.659-6.125,2.825-11.152,0l-.234-.132" transform="translate(-225.698 -150.431)" fill="none" stroke="#000" stroke-linecap="round" stroke-linejoin="round" stroke-width="1.35"/>
          <path id="Path_23329" data-name="Path 23329" d="M385.894,270.894s2.837,1.578,3.969-2.185c1.3-4.341-.869-12.879-3.2-13.342s-3.626,2.882-3.626,2.882Z" transform="translate(-245.934 -144.852)" fill="#fff"/>
          <path id="Path_23330" data-name="Path 23330" d="M385.894,270.894s2.837,1.578,3.969-2.185c1.3-4.341-.869-12.879-3.2-13.342s-3.626,2.882-3.626,2.882Z" transform="translate(-245.934 -144.852)" fill="none" stroke="#000" stroke-linecap="round" stroke-linejoin="round" stroke-width="1.35"/>
          <path id="Path_23331" data-name="Path 23331" d="M370.12,257.066a5.77,5.77,0,0,1,5.65-2.86c4.118.28,5.7,14.869,5.159,16.682s-6.274,2.985-7.04-.435-3.763-13.388-3.763-13.388Z" transform="translate(-240.403 -144.366)" fill="#fff"/>
          <path id="Path_23332" data-name="Path 23332" d="M370.12,257.066a5.77,5.77,0,0,1,5.65-2.86c4.118.28,5.7,14.869,5.159,16.682s-6.274,2.985-7.04-.435-3.763-13.388-3.763-13.388Z" transform="translate(-240.403 -144.366)" fill="none" stroke="#000" stroke-linecap="round" stroke-linejoin="round" stroke-width="1.35"/>
          <path id="Path_23333" data-name="Path 23333" d="M369.248,270.143a3.781,3.781,0,0,1-.36,1.39c-1.47,2.779-7.5,2.705-8.9-1.39-.023-.069-.04-.137-.063-.206a110.062,110.062,0,0,1-2.2-12.9.266.266,0,0,1,.04-.04,6.32,6.32,0,0,1,8.007-1.241C367.161,257.4,369.666,266.117,369.248,270.143Z" transform="translate(-235.099 -144.644)" fill="#fff"/>
          <path id="Path_23334" data-name="Path 23334" d="M357.73,257.035a.247.247,0,0,1,.04-.04,6.32,6.32,0,0,1,8.007-1.241c1.384,1.641,3.889,10.363,3.471,14.389a3.78,3.78,0,0,1-.36,1.39c-1.47,2.779-7.5,2.705-8.9-1.39-.023-.069-.04-.137-.063-.206a75.468,75.468,0,0,1-1.613-8.556" transform="translate(-235.099 -144.644)" fill="none" stroke="#000" stroke-linecap="round" stroke-linejoin="round" stroke-width="1.35"/>
          <path id="Path_23335" data-name="Path 23335" d="M147.665,270.894s-2.837,1.578-3.969-2.185c-1.3-4.341.869-12.879,3.2-13.342s3.626,2.882,3.626,2.882l-2.854,12.645Z" transform="translate(-143.304 -144.852)" fill="#fff"/>
          <path id="Path_23336" data-name="Path 23336" d="M147.665,270.894s-2.837,1.578-3.969-2.185c-1.3-4.341.869-12.879,3.2-13.342s3.626,2.882,3.626,2.882l-2.854,12.645Z" transform="translate(-143.304 -144.852)" fill="none" stroke="#000" stroke-linecap="round" stroke-linejoin="round" stroke-width="1.35"/>
          <path id="Path_23337" data-name="Path 23337" d="M160.673,257.066a5.77,5.77,0,0,0-5.65-2.86c-4.118.28-5.7,14.869-5.159,16.682s6.274,2.985,7.04-.435,3.763-13.388,3.763-13.388Z" transform="translate(-146.069 -144.366)" fill="#fff"/>
          <path id="Path_23338" data-name="Path 23338" d="M160.673,257.066a5.77,5.77,0,0,0-5.65-2.86c-4.118.28-5.7,14.869-5.159,16.682s6.274,2.985,7.04-.435,3.763-13.388,3.763-13.388Z" transform="translate(-146.069 -144.366)" fill="none" stroke="#000" stroke-linecap="round" stroke-linejoin="round" stroke-width="1.35"/>
          <path id="Path_23339" data-name="Path 23339" d="M161.055,270.143a3.78,3.78,0,0,0,.36,1.39c1.47,2.779,7.5,2.705,8.9-1.39.023-.069.04-.137.063-.206a110.062,110.062,0,0,0,2.2-12.9.266.266,0,0,0-.04-.04,6.32,6.32,0,0,0-8.007-1.241c-1.384,1.641-3.889,10.363-3.471,14.389Z" transform="translate(-150.883 -144.644)" fill="#fff"/>
          <path id="Path_23340" data-name="Path 23340" d="M172.563,257.035a.245.245,0,0,0-.04-.04,6.32,6.32,0,0,0-8.007-1.241c-1.384,1.641-3.889,10.363-3.471,14.389a3.78,3.78,0,0,0,.36,1.39c1.47,2.779,7.5,2.705,8.9-1.39.023-.069.04-.137.063-.206a70.656,70.656,0,0,0,1.516-7.921" transform="translate(-150.879 -144.644)" fill="none" stroke="#000" stroke-linecap="round" stroke-linejoin="round" stroke-width="1.35"/>
          <path id="Path_23341" data-name="Path 23341" d="M263.557,67.335c-8.367-6.508-28.641-6.417-32.959,16.048-.772-11,9.03-20.177,18.175-21.069C261.138,61.107,263.557,67.335,263.557,67.335Z" transform="translate(-180.656 -62.159)" fill="#fff"/>
          <path id="Path_23342" data-name="Path 23342" d="M270.774,88.987c-.1.292-.212.56-.315.8a10.563,10.563,0,0,1-.892,1.7,4.416,4.416,0,0,1-.526.686c-.126.063-.252.12-.377.177-.2.1-.4.183-.6.269q-.214.094-.429.172c-.126.051-.257.1-.383.149C252.376,98.475,241.8,80.626,241.8,80.626a20.5,20.5,0,0,1-5.4,14.263c-.217.223-.383.372-.469.452-.046.046-.074.069-.074.069-.286-.337-.555-.681-.818-1.018-.057-.074-.114-.149-.166-.223-.315-.423-.606-.841-.881-1.258a22.417,22.417,0,0,1-1.207-2.042,19.514,19.514,0,0,1-2.179-7.486c-.772-11,9.03-20.177,18.175-21.069,12.365-1.207,14.784,5.021,14.784,5.021a.09.09,0,0,0,.023-.006c1.624-.44,8.35,1.287,8.539,11.461a28.849,28.849,0,0,1-1.344,10.2Z" transform="translate(-180.656 -62.159)" fill="none" stroke="#000" stroke-linecap="round" stroke-linejoin="round" stroke-width="1.35"/>
          <path id="Path_23343" data-name="Path 23343" d="M0,0H3.208A2.555,2.555,0,0,1,5.765,2.556V7.715a4.744,4.744,0,0,1-4.741,4.741H0V0H0Z" transform="translate(88.324 26.675) rotate(5.03)" fill="#fff"/>
          <path id="Path_23344" data-name="Path 23344" d="M296.129,121.292l-.818-.074a1.269,1.269,0,0,1-1.161-1.281l.029-4.318a12.787,12.787,0,0,1,2.03-6.829l1.018.092a65.287,65.287,0,0,0-1.092,12.41Z" transform="translate(-207.881 -82.121)"/>
          <path id="Path_23345" data-name="Path 23345" d="M0,0H1.024A4.744,4.744,0,0,1,5.765,4.741V9.9a2.555,2.555,0,0,1-2.556,2.556H0V0H0Z" transform="translate(54.85 39.082) rotate(174.82)" fill="#fff"/>
          <path id="Path_23346" data-name="Path 23346" d="M0,0H3.208A2.555,2.555,0,0,1,5.765,2.556V7.715a4.744,4.744,0,0,1-4.741,4.741H0V0H0Z" transform="translate(88.324 26.675) rotate(5.03)" fill="none" stroke="#000" stroke-linecap="round" stroke-linejoin="round" stroke-width="1.35"/>
          <path id="Path_23347" data-name="Path 23347" d="M0,0H1.024A4.744,4.744,0,0,1,5.765,4.741V9.9a2.555,2.555,0,0,1-2.556,2.556H0V0H0Z" transform="translate(54.85 39.082) rotate(174.82)" fill="none" stroke="#000" stroke-linecap="round" stroke-linejoin="round" stroke-width="1.35"/>
          <path id="Path_23348" data-name="Path 23348" d="M236.587,121.292l.818-.074a1.273,1.273,0,0,0,1.161-1.281l-.04-4.318a12.8,12.8,0,0,0-2.047-6.829l-1.018.092a65.665,65.665,0,0,1,1.127,12.41Z" transform="translate(-182.756 -82.121)"/>
          <path id="Path_23349" data-name="Path 23349" d="M296.129,121.292l-.818-.074a1.269,1.269,0,0,1-1.161-1.281l.029-4.318a12.787,12.787,0,0,1,2.03-6.829l1.018.092a65.287,65.287,0,0,0-1.092,12.41Z" transform="translate(-207.881 -82.121)" fill="none" stroke="#000" stroke-linecap="round" stroke-linejoin="round" stroke-width="1.35"/>
          <path id="Path_23350" data-name="Path 23350" d="M236.587,121.292l.818-.074a1.273,1.273,0,0,0,1.161-1.281l-.04-4.318a12.8,12.8,0,0,0-2.047-6.829l-1.018.092a65.665,65.665,0,0,1,1.127,12.41Z" transform="translate(-182.756 -82.121)" fill="none" stroke="#000" stroke-linecap="round" stroke-linejoin="round" stroke-width="1.35"/>
        </g>
        <g id="Group_15176" data-name="Group 15176" transform="translate(103.893 114.358)">
          <path id="Path_23351" data-name="Path 23351" d="M273.587,243.613H205.25l-5.542-41.623a1.793,1.793,0,0,1,1.779-2.03H277.35a1.793,1.793,0,0,1,1.779,2.03l-5.542,41.623Z" transform="translate(-199.692 -199.96)" fill="#1f1f1f"/>
          <path id="Path_23352" data-name="Path 23352" d="M273.587,243.613H205.25l-5.542-41.623a1.793,1.793,0,0,1,1.779-2.03H277.35a1.793,1.793,0,0,1,1.779,2.03l-5.542,41.623Z" transform="translate(-199.692 -199.96)" fill="none" stroke="#000" stroke-linecap="round" stroke-linejoin="round" stroke-width="1.35"/>
          <rect id="Rectangle_4919" data-name="Rectangle 4919" width="68.337" height="4.432" transform="translate(5.563 42.258)" fill="#fff"/>
          <rect id="Rectangle_4920" data-name="Rectangle 4920" width="68.337" height="4.432" transform="translate(5.563 42.258)" fill="none" stroke="#000" stroke-linecap="round" stroke-linejoin="round" stroke-width="1.35"/>
          <ellipse id="Ellipse_397" data-name="Ellipse 397" cx="7.389" cy="7.389" rx="7.389" ry="7.389" transform="translate(30.876 14.938)" fill="#fff"/>
        </g>
        <g id="Group_15228" data-name="Group 15228" transform="translate(66.882 -12.796)">
          <path id="Path_23999" data-name="Path 23999" d="M8.88,31.138,16,46.919,65.037.508Z" transform="translate(8.02 0.459)" fill="#00bd96"/>
          <g id="Group_15225" data-name="Group 15225" transform="translate(0 0)">
            <g id="Group_15224" data-name="Group 15224" clip-path="url(#clip-path)">
              <path id="Path_24000" data-name="Path 24000" d="M8.88,31.138,16,46.917,65.035.508Z" transform="translate(8.02 0.46)" fill="none" stroke="#000" stroke-linecap="round" stroke-linejoin="round" stroke-width="1.016"/>
            </g>
          </g>
          <path id="Path_24001" data-name="Path 24001" d="M8.474,16.772l.775.4,7.116,15.779L11.884,17.28l.032-1.307Z" transform="translate(7.653 14.426)"/>
          <path id="Path_24002" data-name="Path 24002" d="M.508,22.938l15.161,7.8.775.4,2.636.11L49.393,32.53,72.6.509Z" transform="translate(0.458 0.46)" fill="#00a773"/>
          <g id="Group_15227" data-name="Group 15227" transform="translate(0 0)">
            <g id="Group_15226" data-name="Group 15226" clip-path="url(#clip-path)">
              <path id="Path_24003" data-name="Path 24003" d="M72.6.508,49.393,32.531,19.079,31.248l-2.636-.11-.775-.4L.508,22.939Z" transform="translate(0.458 0.46)" fill="none" stroke="#000" stroke-linecap="round" stroke-linejoin="round" stroke-width="1.016"/>
            </g>
          </g>
          <path id="Path_24004" data-name="Path 24004" d="M8.474,30.739l.775.4,2.636.108L65.4.509Z" transform="translate(7.653 0.46)"/>
        </g>
      </g>
    </g>
    <g id="Group_15230" data-name="Group 15230" transform="translate(1126.916 1383.68) rotate(71)">
      <g id="Group_15229" data-name="Group 15229" transform="translate(0 0)" clip-path="url(#clip-path-3)">
        <path id="Path_24005" data-name="Path 24005" d="M74.751,29.722s-7.9,21.705-32.012,19.4S10.48,22.28,24.189,16.6c13.574-5.624,22.065,7.859,9.829,13.45S6.314,21.829,0,0" transform="translate(0.183 0.381)" fill="none" stroke="#000" stroke-linecap="round" stroke-linejoin="round" stroke-width="1.693" stroke-dasharray="13.547 13.547"/>
      </g>
    </g>
  </g>
</svg>
