<svg xmlns="http://www.w3.org/2000/svg" width="46.666" height="46.267" viewBox="0 0 46.666 46.267">
  <g id="Group_15868" data-name="Group 15868" transform="translate(0 0)">
    <text id="weup" transform="translate(3.171 42.267)" fill="#272829" font-size="17" font-family="Quicksand-Medium, Quicksand" font-weight="500"><tspan x="0" y="0">weup</tspan></text>
    <path id="Path_21390" data-name="Path 21390" d="M297.923,200.1a.882.882,0,0,0-.07-.124l-.01-.017a.865.865,0,0,0-.081-.1c-.011-.012-.02-.025-.032-.037a.878.878,0,0,0-.075-.062c-.021-.016-.04-.034-.062-.048s-.037-.02-.056-.031a.887.887,0,0,0-.1-.051l-.027-.008a.88.88,0,0,0-.3-.056h0a.879.879,0,0,0-.384.09l-4.925,2.175a.887.887,0,1,0,.717,1.624l2.389-1.055c-1.664,2.313-6.67,8.533-13.232,9.873a12.489,12.489,0,0,1-7.038-.593q.414-.46.808-.96c4.906-6.231,5.394-15.034,1.065-19.223-2.472-2.393-5.3-3.2-7.975-2.286-2.965,1.021-5.218,4.093-5.739,7.826-.349,2.5-.344,8.89,7.227,14.169q.754.526,1.516.963c-5.009,3.994-11.818,3.834-18.845-.62a.887.887,0,1,0-.951,1.5,21.935,21.935,0,0,0,11.621,3.8,14.587,14.587,0,0,0,9.906-3.8,14.312,14.312,0,0,0,8.768.967c7.071-1.449,12.273-7.747,14.18-10.384l0,2.241a.887.887,0,0,0,.887.888h0a.888.888,0,0,0,.887-.887l0-5.386A.878.878,0,0,0,297.923,200.1Zm-25,10.809a17.846,17.846,0,0,1-1.891-1.156c-6.764-4.717-6.788-10.291-6.484-12.468.43-3.078,2.219-5.588,4.559-6.393a4.817,4.817,0,0,1,1.575-.265,6.714,6.714,0,0,1,4.587,2.149c3.7,3.585,3.143,11.3-1.225,16.849A16.551,16.551,0,0,1,272.927,210.912Z" transform="translate(-251.33 -188.848)" fill="#146af0"/>
  </g>
</svg>
