<svg xmlns="http://www.w3.org/2000/svg" width="22.334" height="22.78" viewBox="0 0 22.334 22.78">
  <path id="how-to-icon" d="M3.189,0H14.737a3.2,3.2,0,0,1,3.189,3.189V10.3a3.2,3.2,0,0,1-3.189,3.189H8.7L3.858,17.649a.538.538,0,0,1-.892-.443l.258-3.721H3.189A3.2,3.2,0,0,1,0,10.3V3.189A3.2,3.2,0,0,1,3.189,0ZM9.752,8.278h-2.1V8.192a2.575,2.575,0,0,1,.121-.869,1.926,1.926,0,0,1,.371-.61,11.023,11.023,0,0,1,1.072-.966q.447-.371.447-.667a.621.621,0,0,0-.185-.473.777.777,0,0,0-.545-.169.866.866,0,0,0-.647.261,1.494,1.494,0,0,0-.328.9L5.821,5.33a2.931,2.931,0,0,1,.853-1.9,3.193,3.193,0,0,1,2.3-.719,3.409,3.409,0,0,1,1.943.5,2.1,2.1,0,0,1,1,1.811,1.735,1.735,0,0,1-.258.912A4.385,4.385,0,0,1,10.6,7a2.862,2.862,0,0,0-.7.71,1.033,1.033,0,0,0-.146.575Zm-2.169.68H9.826v1.609H7.582ZM19.8,5.191a3.137,3.137,0,0,1,2.536,3.068v7.106a3.133,3.133,0,0,1-3.124,3.124H19.1l.263,3.789a.471.471,0,0,1-.775.389l-4.865-4.3h-6.4l3.152-3.207h6.674A2.658,2.658,0,0,0,19.8,12.508V5.187ZM14.735,1.075H3.189A2.121,2.121,0,0,0,1.075,3.189V10.3a2.121,2.121,0,0,0,2.113,2.123h.654a.538.538,0,0,1,.5.571L4.132,16l3.993-3.433a.532.532,0,0,1,.371-.156h6.238A2.121,2.121,0,0,0,16.848,10.3V3.189a2.121,2.121,0,0,0-2.113-2.113Z" fill-rule="evenodd"/>
</svg>
