<svg xmlns="http://www.w3.org/2000/svg" width="44" height="32" viewBox="0 0 44 32">
  <path id="_61fb84c2082b945e91f15c1d_quote" data-name="61fb84c2082b945e91f15c1d_quote" d="M34.211,0c-6.6,0-11.026,4.9-11.026,12.2,0,14.5,7.42,19.7,20.3,19.8V26c-4.124,0-7.007-1-8.863-2.5a7.442,7.442,0,0,1-2.988-5.2,5.23,5.23,0,0,0,2.576.7C40.187,19,44,14.8,44,9.6A9.662,9.662,0,0,0,34.211,0ZM11.026,0C4.432,0,0,4.9,0,12.2,0,26.7,7.525,31.9,20.3,32V26c-4.124,0-7.007-1-8.763-2.5a7.585,7.585,0,0,1-3.088-5.2,6.067,6.067,0,0,0,2.576.7c5.976,0,9.789-4.2,9.789-9.4A9.662,9.662,0,0,0,11.026,0Z" transform="translate(0 0.001)" fill="#fff" fill-rule="evenodd"/>
</svg>
