<svg id="Group_15167" data-name="Group 15167" xmlns="http://www.w3.org/2000/svg" xmlns:xlink="http://www.w3.org/1999/xlink" width="76.824" height="81.944" viewBox="0 0 76.824 81.944">
  <defs>
    <clipPath id="clip-path">
      <rect id="Rectangle_4915" data-name="Rectangle 4915" width="76.824" height="81.944" fill="none"/>
    </clipPath>
  </defs>
  <g id="Group_15162" data-name="Group 15162" clip-path="url(#clip-path)">
    <path id="Path_23283" data-name="Path 23283" d="M74.46,41.773A36.73,36.73,0,1,0,37.73,78.5a36.73,36.73,0,0,0,36.73-36.73" transform="translate(0.682 3.441)" fill="#e5e5e5"/>
    <path id="Path_23284" data-name="Path 23284" d="M74.46,37.73A36.73,36.73,0,1,0,37.73,74.46,36.73,36.73,0,0,0,74.46,37.73" transform="translate(0.682 0.682)" fill="#fff"/>
    <path id="Path_23285" data-name="Path 23285" d="M38.412,76.824A38.412,38.412,0,1,1,76.824,38.412,38.456,38.456,0,0,1,38.412,76.824m0-73.46A35.048,35.048,0,1,0,73.46,38.412,35.088,35.088,0,0,0,38.412,3.365" fill="#2f424f"/>
    <path id="Path_23286" data-name="Path 23286" d="M48.647,30.171A18.365,18.365,0,1,0,30.283,48.535,18.365,18.365,0,0,0,48.647,30.171" transform="translate(8.131 8.055)" fill="#f9b233"/>
    <path id="Path_23287" data-name="Path 23287" d="M32.712,65.495h0a1.681,1.681,0,0,1-1.292-.606L23.178,55a24.357,24.357,0,1,1,19.069,0L34,64.889a1.681,1.681,0,0,1-1.292.606m0-53.886A20.986,20.986,0,0,0,24.837,52.05a1.665,1.665,0,0,1,.661.483l7.214,8.652,7.217-8.654a1.676,1.676,0,0,1,.659-.481,20.986,20.986,0,0,0-7.877-40.441" transform="translate(5.701 5.625)" fill="#2f424f"/>
    <path id="Path_23288" data-name="Path 23288" d="M23.515,38.745a1.682,1.682,0,0,1-1.682-1.682V20.4a1.682,1.682,0,0,1,3.365,0V37.062a1.682,1.682,0,0,1-1.682,1.682" transform="translate(14.897 12.769)" fill="#fff"/>
    <path id="Path_23289" data-name="Path 23289" d="M28.216,22.08H21.527a1.682,1.682,0,0,1,0-3.365h6.689a1.682,1.682,0,0,1,0,3.365" transform="translate(13.54 12.769)" fill="#fff"/>
    <path id="Path_23290" data-name="Path 23290" d="M28.216,32.095H21.527a1.682,1.682,0,1,1,0-3.365h6.689a1.682,1.682,0,1,1,0,3.365" transform="translate(13.54 19.603)" fill="#fff"/>
    <path id="Path_23291" data-name="Path 23291" d="M23.515,20.173a1.682,1.682,0,0,1-1.682-1.682V15.984a1.682,1.682,0,0,1,3.365,0v2.507a1.682,1.682,0,0,1-1.682,1.682" transform="translate(14.897 9.758)" fill="#fff"/>
  </g>
</svg>
