<svg xmlns="http://www.w3.org/2000/svg" width="149.942" height="40" viewBox="0 0 149.942 40">
  <g id="logoipsum-logo-29" transform="translate(-2 -2)">
    <path id="Path_14442" data-name="Path 14442" d="M51.439,28V10.888H48.633V28Z"/>
    <path id="Path_14443" data-name="Path 14443" d="M53.156,22.3a5.911,5.911,0,1,0,11.822,0,5.911,5.911,0,1,0-11.822,0Zm2.829,0c0-2.047,1.219-3.473,3.082-3.473s3.082,1.426,3.082,3.473c0,2.024-1.219,3.473-3.082,3.473S55.985,24.32,55.985,22.3Z"/>
    <path id="Path_14444" data-name="Path 14444" d="M65.922,22.066c0,3.312,2.139,5.7,5.336,5.7A4.423,4.423,0,0,0,75.053,26v1.932a2.9,2.9,0,0,1-3.128,3.1c-1.748,0-2.944-.851-3.1-2.346H65.991a5.478,5.478,0,0,0,5.773,4.9c3.68,0,6.026-2.415,6.026-6.164V16.638H75.306l-.161,1.541A4.247,4.247,0,0,0,71.35,16.27C68.107,16.27,65.922,18.731,65.922,22.066ZM68.774,22a3,3,0,0,1,2.967-3.266A3.116,3.116,0,0,1,74.961,22a3.159,3.159,0,0,1-3.22,3.335A3.059,3.059,0,0,1,68.774,22Z"/>
    <path id="Path_14445" data-name="Path 14445" d="M79.179,22.3A5.911,5.911,0,1,0,91,22.3a5.911,5.911,0,1,0-11.822,0Zm2.829,0c0-2.047,1.219-3.473,3.082-3.473s3.082,1.426,3.082,3.473c0,2.024-1.219,3.473-3.082,3.473S82.008,24.32,82.008,22.3Z"/>
    <path id="Path_14446" data-name="Path 14446" d="M94.038,14.315a1.668,1.668,0,1,0,0-3.335,1.668,1.668,0,0,0,0,3.335ZM92.635,28h2.806V16.638H92.635Z"/>
    <path id="Path_14447" data-name="Path 14447" d="M97.9,33.267h2.738V26.436a4.56,4.56,0,0,0,3.956,1.863c3.358,0,5.359-2.576,5.313-6.118-.069-3.565-2.116-5.888-5.336-5.888a4.385,4.385,0,0,0-3.979,2.07l-.161-1.725H97.9Zm2.853-10.948a3.158,3.158,0,0,1,3.2-3.473c1.955,0,3.128,1.449,3.128,3.473s-1.173,3.45-3.128,3.45A3.139,3.139,0,0,1,100.751,22.319Z"/>
    <path id="Path_14448" data-name="Path 14448" d="M110.617,24.6c.092,2.254,1.84,3.7,4.554,3.7,2.668,0,4.485-1.426,4.485-3.634,0-1.633-1.012-2.737-2.875-3.2l-2-.483c-.851-.23-1.426-.529-1.426-1.265,0-.782.621-1.334,1.633-1.334a1.557,1.557,0,0,1,1.748,1.587h2.553c-.092-2.254-1.771-3.68-4.232-3.68-2.438,0-4.255,1.426-4.255,3.588,0,1.472.851,2.691,3.036,3.266l1.978.506c.736.207,1.2.552,1.2,1.2,0,.9-.851,1.311-1.886,1.311-1.242,0-1.955-.575-1.955-1.564Z"/>
    <path id="Path_14449" data-name="Path 14449" d="M125.477,28.3a4.409,4.409,0,0,0,3.68-1.771L129.341,28h2.622V16.638h-2.806V22.6c0,2.047-.782,3.2-2.622,3.2-1.426,0-2.415-.69-2.415-3.036V16.638h-2.806v7.107C121.314,26.459,122.786,28.3,125.477,28.3Z"/>
    <path id="Path_14450" data-name="Path 14450" d="M137.245,28V21.468c0-1.84,1.081-2.714,2.415-2.714s2.208.851,2.208,2.461V28H144.6V21.491c0-1.863,1.058-2.737,2.392-2.737a2.149,2.149,0,0,1,2.231,2.461V28h2.714V20.571c0-2.622-1.449-4.278-4.209-4.278a3.731,3.731,0,0,0-3.634,2.162,4.152,4.152,0,0,0-6.946-.529l-.138-1.288h-2.576V28Z"/>
    <path id="Path_14451" data-name="Path 14451" d="M2,22.435l0-.2,0-.2.006-.2.008-.2.01-.2.012-.2.014-.2.016-.2.018-.2.02-.2.023-.2.025-.2.027-.2.029-.2.031-.2.033-.2.035-.2.037-.2.039-.2.041-.2.043-.2.045-.2.047-.2.049-.2.051-.2.053-.2.055-.2.057-.195.059-.194.061-.194.063-.193.065-.193.067-.192.069-.192.071-.191.073-.19.075-.19.077-.189.079-.188.081-.188.083-.187.085-.186.087-.186.089-.185.091-.184.093-.183.095-.182.1-.181.1-.181.1-.18.1-.179.1-.178.106-.177.108-.176.11-.175.112-.174.113-.173.115-.172.117-.171.119-.17.121-.169.122-.167.124-.166.126-.165.128-.164L6.451,10l.131-.162.133-.16.135-.159.136-.158L7.124,9.2l.14-.155L7.4,8.895l.143-.153.144-.151.146-.15.148-.149.149-.147L8.285,8l.152-.144.154-.143.155-.141L8.9,7.43l.158-.139.16-.137.161-.136.163-.134.164-.132.166-.131.167-.129.168-.128.17-.126.171-.125.172-.123L10.9,5.87l.175-.12.176-.118.178-.116.179-.115.18-.113.181-.111.183-.109.184-.108.185-.106.186-.1.187-.1.188-.1.189-.1.191-.1.192-.1.193-.093.194-.091.195-.089.2-.088.2-.086.2-.084.2-.082.2-.08.2-.078.2-.076.2-.074.2-.072.2-.07.2-.068.205-.066L16.85,3l.207-.062.208-.06.208-.058.209-.056.21-.054.21-.052.211-.05.212-.048.212-.046.213-.044.213-.042.214-.04.214-.038.215-.036.215-.034.215-.032.216-.029.216-.027.217-.025.217-.023.217-.021.217-.019.218-.017.218-.015L23.143,2l.067,5.649h.362l.162,0,.162,0,.162.006.162.008.162.009.162.011.162.013.162.014.162.016.162.017.162.019.162.021.162.022.161.024L26,7.861l.161.027.161.028.161.03.16.032.16.033.16.035.16.036.159.038.159.04L27.6,8.2l.158.043.158.044.158.046.157.047.157.049.156.051.156.052.156.054.155.055.155.057.154.058.153.06.153.061.152.063.152.065.151.066.151.068.15.069.149.071.149.072.148.074.147.075.147.077.146.078.145.08.144.081L31.7,9.9l.143.084.142.085.141.087.141.088.14.09.139.091.138.092.137.094.136.1.135.1.134.1.133.1.133.1.132.1.131.1.13.1.129.106.127.108.126.109.125.11.124.111.123.113.122.114.121.115.12.116.119.118.118.119.117.12.115.121.114.122.113.124.112.125.11.126.109.127.108.128.107.129.106.13.1.132.1.133.1.134.1.135.1.136.1.137.1.138.095.139.094.14.092.141.091.142.089.143.088.144.086.145.085.146.083.146.082.147.081.148.079.149.078.15.076.151.075.152.073.153.072.153.07.154.069.155.067.156.065.156.064.157.062.158.061.158.059.159.057.16.056.16.054.161.053.162.051.162.049.163.048.163.046.164.044.164.043.165.041.165.039.166.038.166.036.167.034.167.033.168.031.168.029.168.027.169.026.169.024.17.022.17.021.17.019.17.017.171.015.171.014.171.012.171.01.172.008.172.007.172,0,.172,0,.172v.344l0,.172,0,.173-.006.172-.008.173-.009.172-.011.173-.013.173-.015.172L39.915,26l-.018.172-.02.172-.022.172-.023.172-.025.172-.027.172-.029.171-.031.171-.032.171-.034.171-.036.17-.038.17-.039.17-.041.17-.043.169-.045.169-.047.169-.048.168-.05.168-.052.168-.054.167-.055.167-.057.166-.059.166-.06.165-.062.164-.064.164-.066.163-.067.163-.069.162-.071.162-.072.161-.074.16-.076.16-.077.159-.079.159-.081.158-.083.157-.084.156-.086.156-.087.155-.089.154-.091.153-.092.152-.094.152-.1.151-.1.15-.1.149-.1.148-.1.147-.1.146-.1.145-.106.144-.108.143-.109.142-.111.141-.112.14L36,35.3l-.115.138-.117.137-.118.136-.12.135-.121.134-.123.133-.124.131-.125.13-.127.129-.128.128-.13.127-.131.126L34.392,37l-.134.123-.135.122-.136.121-.138.119-.139.118-.14.117-.141.115-.143.114-.144.113L33,38.177l-.146.11L32.7,38.4l-.149.107-.15.106-.151.1-.152.1-.153.1-.154.1-.155.1-.156.1-.158.1-.159.094-.16.093-.161.091-.162.089-.163.088-.164.086-.165.085-.166.083-.167.082-.167.08-.168.078-.169.077-.17.075-.171.074-.172.072-.172.07-.173.069-.174.067-.175.065-.176.063-.176.062-.177.06-.178.058-.179.057-.179.055-.18.053-.18.051-.181.05-.182.048-.182.046L26,41.475l-.183.043-.184.041-.184.039-.185.037-.185.036-.186.034-.186.032-.187.03-.187.028-.187.027-.187.025-.188.023-.188.021-.188.019-.189.017-.189.015-.189.014-.19.012-.19.01-.19.008-.19.006-.19,0-.19,0H21.3l-.191,0-.191,0-.191-.007-.191-.009-.191-.011-.191-.012-.191-.014-.191-.016-.191-.018-.19-.02-.19-.022-.19-.024-.19-.026-.19-.028-.19-.029-.189-.031-.189-.033-.189-.035-.188-.037-.188-.039-.188-.041-.188-.042-.187-.044-.187-.046-.186-.048-.186-.05-.186-.052-.185-.053-.185-.055-.184-.057-.184-.059-.183-.061-.183-.063-.182-.064-.182-.066-.181-.068-.18-.07-.18-.072-.179-.073-.178-.075-.178-.077-.177-.079-.176-.081-.175-.082-.175-.084-.174-.086-.173-.088-.172-.089-.171-.091-.171-.093-.17-.095-.169-.1-.168-.1-.167-.1-.166-.1-.165-.1-.164-.1-.163-.106L10.6,38.66l-.161-.11-.16-.111-.159-.113-.158-.114L9.8,38.1l-.155-.118-.154-.119-.153-.121-.152-.122-.151-.124-.15-.125-.148-.127-.147-.128-.146-.13L8.3,36.852l-.143-.133-.142-.134-.141-.136-.139-.137L7.6,36.173l-.137-.14-.135-.141-.134-.143-.132-.144-.131-.146-.13-.147-.128-.148-.127-.15-.125-.151-.124-.152-.122-.153L6.052,34.4l-.119-.156-.118-.157L5.7,33.933l-.114-.16-.113-.161-.111-.162-.11-.163-.108-.164-.106-.165-.1-.166-.1-.168-.1-.168-.1-.17-.1-.171-.1-.172-.095-.173L4.246,31.6l-.091-.175-.089-.176-.088-.177-.086-.177-.084-.179-.082-.179-.08-.18-.079-.181-.077-.182-.075-.183-.073-.184-.071-.184L3.2,29.257l-.068-.186-.066-.187L3,28.7l-.062-.188-.06-.189-.058-.189-.056-.19-.054-.191-.052-.191-.05-.192-.048-.192-.046-.193-.044-.194-.043-.194L2.389,26.4,2.35,26.2l-.037-.2-.035-.2-.033-.2-.031-.2-.029-.2-.027-.2-.025-.2-.023-.2-.021-.2-.019-.2-.016-.2-.014-.2-.012-.2-.01-.2-.008-.2-.006-.2,0-.2,0-.2ZM21.378,7.767l-.046-3.85-.043,0-.2.021-.2.023-.2.025-.2.027-.2.029-.2.031-.2.033-.2.035-.2.036-.2.038-.194.04-.194.042-.193.044-.193.046-.192.048-.192.05-.191.052-.191.053-.19.055-.189.057-.189.059-.188.061-.187.062-.187.064-.186.066-.185.068-.184.07-.183.071-.182.073-.182.075-.181.077-.18.078-.179.08-.178.082-.177.083-.177.085-.175.087-.174.089-.173.09-.172.092-.171.093-.17.1-.169.1-.168.1-.167.1-.166.1-.165.1-.164.1-.162.106-.161.108-.16.109-.159.111-.158.112-.156.114-.155.115-.154.117-.153.118-.152.12-.15.121-.149.122-.147.124-.146.125-.145.126-.144.128-.142.129-.141.131-.139.132-.138.133-.136.134-.135.136-.134.137-.132.138-.13.139-.129.141-.127.142-.126.143-.125.144-.123.145-.121.147-.12.148-.118.149-.117.15-.115.151-.113.152-.112.153-.11.154L7.1,12.17l-.107.156-.105.157-.1.158-.1.159-.1.16-.1.16-.1.161-.1.162-.093.163-.092.164-.09.165-.088.166-.086.166-.085.167-.083.168-.081.168-.079.169-.078.17-.076.17-.074.171-.072.172-.07.172-.069.173-.067.174-.065.174-.063.175-.061.175-.06.176-.058.176-.056.177-.054.177-.052.178-.05.178-.049.178-.047.179-.045.179-.043.18-.041.18-.039.18-.037.181-.036.181-.034.181-.032.181-.03.181-.028.182L4,20.072l-.024.182-.022.182-.021.182-.019.182-.017.182-.015.182-.013.183-.011.183-.009.183-.007.183-.005.182,0,.183,0,.182v.182l0,.182,0,.182.006.182.008.182.009.182.011.181.013.181.015.181.017.181.019.181.021.18.022.18L4,24.98l.026.179.028.179.03.178.031.178.033.178.035.177.037.177.039.176.04.176.042.176.044.175.046.174.048.174.049.173.051.173.053.172.055.172.056.171.058.17.06.17.061.169.063.168.065.168.066.167.068.166.07.165.071.164.073.164.075.163.076.162.078.161.08.16.081.16.083.159.084.158.086.157.087.156.089.155.091.154.092.153.094.152.1.151.1.15.1.149.1.148.1.147.1.146.1.145.105.144.107.143.108.141.11.14.111.139.112.138.114.137.115.136.116.134.118.133.119.132.12.131.121.13.123.128.124.127.125.126.126.124L9.3,35.3l.129.122.13.12.131.119.132.118.133.116.135.115.136.114.137.112.138.111.139.109.14.108.141.107.142.105.143.1.144.1.145.1.146.1.147.1.148.1.148.095.149.093.15.092.151.09.152.089.153.087.154.086.154.084.155.083.156.081.157.079.158.078.158.076.159.075.16.073.16.071.161.07.161.068.162.067.163.065.163.063.164.062.164.06.165.058.165.057.166.055.166.053.167.052.167.05.167.048.168.047.168.045.169.043.169.042.169.04.17.038.17.037.17.035.171.033.171.032.171.03.171.028.171.027.172.025.172.023.172.021.172.02.172.018.172.016.172.015.172.013.172.011.172.01.172.008.172.006.172,0,.172,0h.344l.172,0,.172,0,.172-.006.172-.007.171-.009.171-.011.171-.012.171-.014.17-.016.17-.017.17-.019.17-.021.169-.022.169-.024L24.228,40l.168-.027.168-.029.168-.031.167-.032.167-.034.166-.035.166-.037.165-.039.165-.04.164-.042.164-.043.163-.045.163-.046.162-.048.162-.05.161-.051.16-.053.16-.054.159-.056.159-.057.158-.059.157-.06.156-.062.156-.063.155-.065.154-.066.153-.068.152-.069.152-.071.151-.072.15-.073.149-.075.148-.076.147-.078.147-.079.146-.081.145-.082.144-.083.143-.085.142-.086.141-.088.14-.089.139-.09.138-.091.137-.093.136-.094.135-.1.134-.1.133-.1.132-.1.13-.1.13-.1.128-.1.127-.1.126-.105.125-.106.124-.107.123-.109.121-.11.12-.111.119-.112.118-.113.117-.114.115-.115.114-.116.113-.117.111-.118.11-.119.109-.121.108-.121.107-.122.1-.123.1-.124.1-.125.1-.126.1-.127.1-.128.1-.129.1-.13.094-.131.093-.132.091-.132.09-.133.089-.134.087-.135.086-.136.084-.136.083-.137.082-.138.08-.138.079-.139.077-.14.075-.14.074-.141.073-.142.071-.142.07-.143.068-.144.067-.144.065-.145.063-.145.062-.146.061-.146.059-.147.057-.147.056-.148.054-.148.053-.149.051-.149.05-.149.048-.149.047-.151.045-.15.043-.151.042-.151.04-.152.039-.152.037-.152.035-.152.034-.153.032-.153.031-.153.029-.154.028-.153.026-.154.024-.154.023-.154.021-.154.02-.154.018-.155.016-.154.015-.155.013-.154.012-.155.01-.154.008-.155.007-.155.005-.154,0-.154,0-.155v-.309l0-.154,0-.154-.006-.153-.007-.154-.009-.153-.011-.153-.012-.153L38.1,22.9l-.015-.153-.017-.153-.018-.152-.02-.152-.021-.152-.023-.152-.024-.151-.026-.15-.028-.15-.029-.15-.031-.149-.032-.149-.033-.148-.035-.149-.036-.148-.038-.148-.04-.147-.041-.147-.043-.146-.044-.145-.046-.145-.047-.145-.048-.144-.05-.143-.051-.143-.053-.142-.054-.141-.056-.141-.057-.14-.058-.139-.06-.139-.061-.139L36.8,18.07l-.064-.137-.065-.136-.067-.135-.068-.135-.069-.134-.071-.133-.072-.133L36.252,17l-.075-.131-.076-.13-.077-.129-.078-.128-.08-.128-.081-.127L35.7,16.1l-.083-.125-.084-.124-.086-.123-.087-.122-.088-.121-.089-.12-.091-.119L35,15.124l-.093-.117-.094-.116-.1-.115-.1-.114-.1-.113-.1-.112-.1-.111-.1-.11-.1-.109-.1-.108-.1-.107-.1-.106-.106-.1-.107-.1-.108-.1-.109-.1-.11-.1-.111-.1-.112-.1-.113-.1-.114-.1-.115-.094-.115-.093-.116-.092-.117-.091-.118-.089-.119-.089-.12-.087-.12-.086-.121-.085-.122-.083-.123-.082-.123-.081-.125-.08-.125-.079-.126-.077-.127-.076-.127-.075-.128-.073L30.51,11.3l-.129-.071-.13-.069-.13-.068-.131-.067-.132-.066-.132-.064-.133-.063-.133-.062-.134-.06-.135-.059-.139-.059-.131-.054-.136-.055-.136-.053-.137-.052-.137-.05-.138-.049-.138-.048-.139-.046-.139-.045-.139-.044-.14-.042-.14-.041-.14-.039-.141-.038L26.979,9.9l-.141-.035L26.7,9.826l-.141-.032-.142-.031-.142-.03-.143-.028-.142-.027-.143-.025L25.7,9.63l-.143-.023-.143-.021-.143-.02-.143-.018-.144-.017-.143-.015L24.7,9.5l-.144-.013-.144-.011-.144-.01-.143-.008-.144-.007-.144-.005-.143,0-.144,0h-.316l.045,3.822h.186l.1,0,.105,0,.105,0,.105,0,.105.006.105.007.105.008.105.009.105.01.105.011.105.012.105.013.1.014.1.015.1.016.1.017.1.018.1.019.1.02.1.022.1.023.1.024.1.025.1.026.1.027.1.028.1.029.1.03.1.031.1.032.1.033.1.034.1.035.1.036.1.037.1.038.1.039.1.04.1.041.1.042.1.043.1.044.1.045.1.046.1.047.1.048.1.049.1.05.1.051.1.052.095.053.095.054.094.055.094.056.093.057.093.058.092.059.092.06.091.061.09.062.09.063.089.064.089.065.088.066.087.066.087.068.086.068.085.069.085.07.084.071.084.072.083.073.082.074.081.075.081.075.08.076.079.077.079.078.078.079.077.08.076.08.076.081.075.082.074.083.073.084.072.084.072.085.071.086.07.087.069.088.068.088.067.089.067.09.066.09.065.091.064.092.063.093.062.093.061.094.06.095.059.1.058.1.057.1.056.1.056.1.055.1.054.1.053.1.052.1.051.1.05.1.049.1.048.1.047.1.045.1.045.1.043.1.042.105.041.106.04.106.039.107.038.107.037.108.036.108.035.108.034.109.033.109.032.11.03.11.029.111.028.111.027.111.026.111.025.112.024.112.023.112.021.113.02.113.019.113.018.114.017.114.016.114.014.114.013.115.012.115.011.115.01.115.009.115.007.116.006.116.005.116,0,.116,0,.116v.349l0,.116,0,.117,0,.117-.006.117-.007.117-.008.117-.009.117-.011.117-.012.117-.013.117-.014.117-.015.117-.017.117-.018.116-.019.116-.02.116-.021.116-.023.116-.024.116-.025.116-.026.115-.028.115-.029.115-.03.115-.031.115-.032.115-.034.114-.035.114-.036.114-.037.114-.038.113-.04.113-.041.113-.042.112-.043.112-.044.112-.045.111-.047.111-.048.11-.049.11-.05.11-.051.109-.052.109-.054.108-.055.108-.056.108-.057.107-.058.107-.059.106-.06.106-.062.1-.063.1-.064.1-.065.1-.066.1-.067.1-.068.1-.069.1-.07.1-.071.1-.073.1-.074.1-.075.1-.076.1-.077.1-.078.1-.079.1-.08.094-.081.094-.082.093-.083.092-.084.091-.085.091-.086.09-.087.089-.088.088-.089.087-.09.087-.091.086-.092.085-.093.084-.094.083-.094.082-.1.082-.1.081-.1.08-.1.079-.1.078-.1.077-.1.076-.1.075-.1.074-.1.073-.1.072-.1.071-.106.07-.107.069-.107.068-.108.067-.109.066-.11.065-.11.064-.111.063-.112.062-.112.061-.113.06-.114.059L27.446,35l-.115.057-.116.056-.117.055-.117.053-.118.052-.118.051-.119.05-.12.049-.12.048-.121.047-.121.045-.122.044-.122.043-.123.042-.123.041-.124.04-.124.038-.125.037-.125.036-.126.035-.126.033-.127.032-.127.031-.128.03-.128.029-.128.027-.129.026-.129.025-.129.024-.13.022-.13.021-.13.02-.131.019-.131.017-.131.016-.131.015-.132.014-.132.012-.132.011-.132.01-.132.008-.133.007-.133.006-.133,0-.133,0-.133,0h-.267l-.133,0-.133,0-.134,0-.133-.006-.134-.007-.134-.009-.134-.01-.134-.011-.133-.013-.134-.014-.133-.015-.133-.017-.133-.018-.133-.019-.133-.021-.133-.022-.133-.023-.133-.024-.132-.026-.132-.027-.132-.028-.132-.03L18.314,36l-.131-.033-.131-.034-.131-.035-.131-.036-.13-.038-.13-.039-.13-.04-.129-.042-.129-.043-.129-.044-.128-.045-.128-.047-.128-.048-.127-.049-.127-.051-.126-.052-.126-.053L16,35.212l-.125-.056L15.75,35.1l-.124-.058-.123-.059-.123-.061-.122-.062-.122-.063-.121-.065-.12-.066-.12-.067-.119-.068-.119-.069-.118-.071-.117-.072-.117-.073-.116-.074-.115-.075-.115-.077-.114-.078-.113-.079-.112-.08-.112-.081-.111-.082-.11-.083-.109-.085-.108-.086-.108-.087-.107-.088L12.63,33.1l-.105-.09-.1-.091-.1-.092-.1-.093-.1-.094-.1-.1-.1-.1-.1-.1-.1-.1-.1-.1-.1-.1-.095-.1-.094-.1-.093-.1-.092-.1-.091-.106-.09-.107-.089-.108-.088-.108-.087-.109-.086-.11-.085-.111-.083-.112-.083-.113-.081-.114-.08-.115-.079-.116-.078-.116-.077-.117L9.9,29.959l-.074-.119-.073-.12L9.679,29.6l-.071-.121-.07-.122-.068-.123L9.4,29.111l-.066-.124-.065-.125-.064-.126-.062-.126-.061-.127-.06-.128-.058-.128L8.91,28.1l-.056-.13-.055-.13-.053-.131-.052-.132-.051-.132-.049-.133-.048-.133L8.5,27.043l-.045-.134-.044-.135-.043-.135L8.327,26.5l-.04-.136-.038-.137-.037-.137-.036-.138-.034-.138-.033-.139-.031-.139-.03-.139-.029-.14-.027-.14-.026-.14-.024-.141L7.918,24.7,7.9,24.555l-.02-.142-.019-.142-.017-.142-.016-.142-.014-.143L7.8,23.7l-.011-.143-.01-.143-.008-.144-.007-.144-.005-.144,0-.144,0-.144v-.289l0-.144,0-.144,0-.145.006-.145.008-.145.009-.145.011-.144.012-.145.014-.144.015-.144.017-.144.018-.144.02-.144.021-.144.023-.144.024-.144.026-.144.027-.144.029-.143.03-.143.032-.143.033-.143.035-.142.036-.142.038-.142.039-.142.041-.141.042-.141.044-.141.045-.14.047-.14.048-.14.049-.139.051-.139.052-.138.054-.138.055-.137L8.868,17l.058-.136.06-.136.061-.135.062-.135.064-.134.065-.134.067-.133.068-.133.069-.132.071-.132.072-.131.074-.13.075-.13.076-.129.078-.128.079-.127.08-.127.082-.126.083-.125.084-.125.086-.124.087-.123.088-.122.09-.121.091-.121.092-.12.094-.119.095-.118.1-.117.1-.116.1-.116.1-.115.1-.114.1-.113.1-.112.1-.111.106-.11.107-.109.108-.108.109-.107.111-.106.112-.1.113-.1.114-.1.115-.1.116-.1.117-.1.119-.1.119-.1.121-.1.122-.1.123-.094.124-.093.125-.092.126-.09.127-.089.128-.088.129-.087.13-.086.131-.084.132-.083.132-.082.133-.081.134-.079.135-.078.136-.077.137-.075.138-.074.139-.073.139-.072.14-.07.141-.069.142-.068.143-.066.143-.065.144-.063.145-.062.146-.061L17.32,8.8l.147-.058.148-.056.148-.055.149-.054.149-.052.15-.051.151-.049.151-.048.152-.046.152-.045.153-.043.153-.042.154-.04.155-.039.155-.037.155-.036.156-.034.156-.033.157-.031.157-.03.158-.028.158-.027.158-.025L21,7.817l.159-.022.159-.021Zm.067,5.669L21.4,9.572l-.131.018-.14.021-.14.022-.139.024-.14.025-.139.026-.139.028-.138.029-.138.03-.138.032-.137.033-.137.034-.136.036-.131.036-.14.04-.135.04-.134.041-.134.042-.133.044-.133.045-.132.046-.132.047-.131.049-.13.05-.13.051-.129.052-.129.054-.128.055-.127.056-.126.057-.126.058-.125.06L17,10.915l-.124.062-.123.063-.123.065-.121.065-.121.067-.12.068-.119.069-.119.07-.118.071-.117.072-.116.073-.115.074-.114.076-.113.076-.113.078-.112.079-.111.08-.11.081-.109.082-.108.083-.107.084-.106.085-.105.086-.1.087-.1.088-.1.089-.1.09-.1.091-.1.091-.1.092-.1.093-.1.094-.1.1-.095.1-.093.1-.092.1-.091.1-.09.1-.089.1-.088.1-.087.1-.086.1-.085.1-.083.1-.082.1-.081.106-.08.106-.079.107-.078.108-.077.108-.075.109-.074.11-.073.11-.072.111-.071.111-.069.112-.068.113-.067.113-.066.114-.065.115-.063.115-.062.116-.061.116-.06.116-.059.117-.057.118-.056.118-.055.119-.054.119-.052.119-.051.12-.05.12-.049.121-.047.121-.046.121-.045.122-.043.122-.042.122-.041.123-.039.123-.038.123-.037.124-.036.124-.034.124-.033.125-.032.125-.03.125-.029.125-.028.125-.027.125-.025.126-.024.126-.023.126-.021.126-.02.126-.019.126-.017.126-.016.126-.015.127-.013.126-.012.127-.011.127-.01.127-.008.127-.007.127-.006.126,0,.127,0,.126,0,.126v.253l0,.126,0,.126,0,.126.006.126.007.126.009.125.01.125.011.125.012.125.014.125.015.124.016.124.018.124.019.124.02.123.021.123.023.123.024.122.025.122.026.122.027.122.029.121.03.121.031.12.032.12.033.119.035.119.036.119.037.118.038.118.04.117.041.117.042.116.043.116.044.115.045.115.046.114.048.114.049.113.05.113.051.112.052.111.053.111.054.11.055.109.056.109.057.108.059.108.06.107.061.106.062.106.063.1.064.1.065.1.066.1.067.1.068.1.069.1.07.1.071.1.072.1.073.1.074.1.075.1.075.1.076.094.077.094.078.093.079.092.08.091.081.09.082.089.082.088.083.087.084.087.085.086.086.085.087.084.087.083.088.082.089.081.09.08.09.079.091.078.092.077.093.076.093.075.094.074.095.073.1.073.1.071.1.07.1.069.1.068.1.067.1.066.1.065.1.064.1.063.1.062.1.061.1.06.1.059.1.058.1.057.1.056.105.055.106.054.106.053.107.052.107.05.107.049.108.048.108.047.109.046.109.045.11.044.11.043.11.042.111.041.111.039.111.038.112.037.112.036.112.035.112.034.113.033.113.031.113.03.113.029.114.028.114.027.114.026.114.025.114.024.114.022.115.021.115.02.115.019.115.018.115.017.115.016.115.014.115.013.115.012.115.011.115.01.115.009.115.008.115.006.115.005.115,0,.115,0,.115,0h.23l.115,0,.115,0,.114,0,.114,0,.114-.006.114-.007.114-.008.114-.009.113-.011.113-.012.113-.013.113-.014.113-.015.112-.016.112-.017.112-.018.111-.019.111-.02.111-.021.111-.022.11-.024.11-.025.11-.026.109-.027.109-.028.108-.029.108-.03.108-.031.107-.032.107-.033.106-.034.106-.035.105-.036.105-.037.1-.038.1-.039.1-.04.1-.041.1-.042.1-.043.1-.044.1-.045.1-.046.1-.047.1-.048.1-.049.1-.05.1-.05.1-.052L27,33.2l.1-.053.1-.054.094-.055.094-.056.093-.057.092-.058.092-.059.091-.059.09-.06.09-.061.089-.062.088-.062.088-.064.087-.064.086-.065.086-.066.084-.066.084-.068.083-.068.082-.069.082-.07.081-.07.08-.071.079-.072.078-.072.078-.073.077-.074.076-.075.075-.075.074-.076.073-.077.072-.077.072-.078.071-.079.07-.079.069-.08.068-.08.067-.081.066-.082.065-.082.065-.083.064-.083.063-.084.062-.084.061-.085.06-.086.059-.086.058-.087.057-.087.056-.087.055-.088.054-.088.053-.089.052-.089.052-.09.05-.09.05-.091.049-.091.047-.091.047-.092.045-.092.045-.093.043-.093.043-.094.041-.093.041-.094.04-.094.038-.094.038-.095.037-.1.035-.1.035-.1.033-.1.032-.1.031-.1.031-.1.029-.1.028-.1.027-.1.026-.1.025-.1.024-.1.023-.1.022-.1.021-.1.02-.1.019-.1.018-.1.017-.1.016-.1.015-.1.014-.1.013-.1.012-.1.011-.1.01-.1.009-.1.008-.1.007-.1.006-.1,0-.1,0-.1,0-.1,0-.1v-.3l0-.1,0-.1,0-.1-.005-.1-.006-.1-.007-.1-.008-.1-.009-.1-.01-.1-.011-.1-.012-.1-.013-.1-.014-.1-.015-.1-.016-.1-.017-.1-.018-.095-.019-.1-.02-.094-.021-.094-.022-.094-.023-.094-.024-.093-.025-.093-.026-.093-.027-.092-.028-.092-.028-.092-.029-.091-.03-.091-.031-.09-.032-.09-.033-.09-.034-.089-.035-.089-.036-.089-.037-.088-.037-.087-.038-.087-.039-.087-.04-.086-.041-.086-.042-.085-.042-.084-.043-.084-.044-.083-.045-.083-.046-.083-.046-.082-.047-.082-.048-.081-.049-.081-.049-.08-.051-.08-.051-.079-.052-.078-.053-.077-.054-.077-.054-.076-.055-.076-.056-.075-.056-.074-.057-.074L30.4,18.48l-.059-.073-.059-.072-.06-.071-.06-.071-.061-.07-.062-.069-.062-.069-.063-.068-.064-.067-.065-.067-.065-.066-.066-.065-.066-.064-.067-.064-.067-.063-.068-.062-.069-.061-.069-.061-.07-.06-.07-.059-.071-.059-.071-.058-.072-.057-.072-.056-.073-.055-.073-.055-.074-.054-.074-.053-.075-.052-.076-.052-.075-.051-.076-.05-.077-.049-.077-.048-.077-.047-.078-.047-.078-.046-.079-.045-.079-.044-.079-.043-.08-.043-.08-.042-.08-.041-.081-.04-.081-.039-.081-.038-.081-.038-.082-.037-.082-.036-.083-.035-.083-.034-.083-.033-.083-.032-.084-.032-.084-.031-.084-.03-.084-.029-.085-.028-.084-.027-.085-.026-.085-.026-.086-.025-.085-.024-.086-.023-.086-.022-.086-.021-.086-.02-.086-.02-.086-.019-.086-.018L25,15.212l-.086-.016-.087-.015-.087-.014-.087-.014-.086-.012-.087-.012-.087-.011-.087-.01-.087-.009-.087-.008-.087-.007-.087-.007-.087-.006-.087,0-.086,0-.087,0-.086,0H23.3l.045,3.775h.126l.05,0,.05,0,.05,0,.05,0,.05,0,.05,0,.05,0,.05.005.05.006.05.006.05.007.05.007.05.008.05.009.05.009.05.01.05.01.05.011.05.011.05.012.05.012.05.013.05.013.05.014.05.014.05.015.05.015.049.016.05.017.049.017.049.017.049.018.049.019.049.019.049.02.049.02.049.021.048.021.048.022.048.022.048.023.048.023.048.024.047.024.047.025.047.025.047.026.047.026.046.027.046.028.046.028.046.029.045.029.045.029.045.03.045.031.045.031.044.032.044.032.044.033.043.033.043.034.043.034.042.035.042.035.042.036.042.036.041.036.041.037.041.038.04.038.04.038.04.039.039.039.039.04.039.04.038.041.038.041.037.042.037.042.037.042.036.043.036.043.035.044.035.044.035.045.034.045.034.045.033.046.033.046.032.047.032.047.031.047.031.048.031.048.03.049.03.049.029.049.029.05.028.05.028.05.027.051.027.051.026.052.026.052.025.052.025.053.024.053.024.053.023.053.023.054.022.054.021.054.021.055.021.055.02.055.019.056.019.056.018.056.018.056.017.057.017.057.016.057.015.057.015.058.014.058.014.058.013.058.012.059.012.059.011.059.011.059.01.059.009.059.009.06.008.06.007.06.007.06.006.06.006.06,0,.061,0,.061,0,.061,0,.061,0,.061,0,.061v.307l0,.062,0,.062,0,.062,0,.062,0,.062-.005.062-.006.062-.007.062-.007.062-.008.062-.009.062-.009.062-.01.062-.011.062-.011.062-.012.062-.013.062-.013.062-.014.062-.015.062-.015.062-.016.062-.017.061-.017.062-.018.061-.019.061-.019.061-.02.061-.021.061-.021.061-.022.061-.023.061-.023.06-.024.06-.025.06-.025.06-.026.06-.027.06-.027.059-.028.059-.029.059-.029.059-.03.059-.031.058-.031.058-.032.058-.032.058-.033.057-.034.057-.034.057-.035.057-.036.056-.036.056-.037.056-.038.055-.038.055-.039.055-.04.054-.04.054-.041.054L27.2,28.1l-.042.053-.043.053-.043.052-.044.052-.044.052-.045.051-.046.051-.046.051-.047.05-.047.05-.048.049-.049.049-.049.048-.05.048-.05.048-.051.047-.051.047L26.353,29l-.052.046-.053.045-.053.045-.054.044-.055.044-.055.043-.056.043-.056.042-.057.042-.057.041-.058.041-.058.04-.059.04-.059.039-.06.038-.06.038-.061.037-.061.037-.062.036-.062.036-.062.035-.063.035-.063.034-.064.033-.064.033-.065.032-.065.032-.065.031-.066.03-.066.03-.067.029-.067.029-.067.028-.068.027-.068.027-.068.026-.069.025-.069.025-.069.024-.07.023-.07.023-.07.022-.071.021-.071.021-.071.02-.072.019-.072.019-.072.018-.073.017-.073.017-.073.016-.073.015-.073.014-.074.014-.074.013-.074.012-.074.011-.075.011-.075.01-.075.009-.075.008-.075.008-.076.007-.076.006-.076.006-.076,0-.076,0-.076,0-.076,0-.076,0h-.307l-.077,0-.077,0-.077,0-.077,0-.077-.005-.077-.006-.077-.007-.077-.008-.077-.008-.077-.009-.077-.01-.077-.011-.077-.011-.077-.012-.077-.013-.077-.014-.077-.014-.077-.015L19.9,30.6l-.077-.017-.077-.018-.076-.018-.076-.019-.076-.02-.076-.021-.076-.021-.076-.022-.076-.023-.076-.024-.075-.025-.075-.025-.075-.026-.075-.027-.075-.028-.074-.028-.074-.029-.074-.03-.074-.031-.073-.032-.073-.032-.073-.033-.073-.034-.073-.035-.072-.035-.072-.036-.072-.037-.071-.038-.071-.038-.071-.039-.07-.04-.07-.041-.07-.041-.069-.042-.069-.043-.069-.044-.068-.044-.068-.045-.067-.046-.067-.046-.067-.047-.066-.048-.066-.049-.065-.049-.065-.05-.064-.051-.064-.051-.063-.052-.063-.053-.062-.053-.062-.054-.062-.055-.061-.056-.061-.056-.06-.057-.059-.057-.059-.058-.058-.059-.058-.059-.057-.06-.057-.061-.056-.061-.056-.062-.055-.062-.054-.063-.054-.064-.053-.064L15.3,27.75l-.052-.066-.051-.066-.051-.067-.05-.067-.049-.068L15,27.348l-.048-.069-.047-.069-.047-.07-.046-.071L14.768,27l-.045-.072-.044-.072-.043-.073-.042-.073-.042-.074-.041-.074-.04-.075-.04-.075-.039-.076-.038-.076-.037-.076-.037-.077-.036-.077-.035-.078-.034-.078-.034-.079-.033-.079-.032-.08-.031-.08-.03-.08-.029-.081-.029-.081-.028-.081-.027-.082-.026-.082-.026-.082-.025-.083-.024-.083-.023-.083-.022-.084-.021-.084-.02-.084-.02-.084-.019-.085-.018-.085-.017-.085-.016-.086-.015-.086-.014-.086-.014-.086-.013-.087-.012-.087-.011-.087-.01-.087-.009-.087-.008-.087-.007-.088L13.5,23.1l-.005-.088,0-.088,0-.088,0-.088,0-.089V22.4l0-.089,0-.089,0-.089,0-.089.006-.089.006-.089.007-.089.008-.089.009-.089.01-.089.011-.089.012-.089.013-.089.014-.089.015-.089.016-.089.017-.089.018-.089.019-.089.019-.088.02-.088.021-.088.022-.088.023-.088.024-.088.025-.088L13.862,20l.027-.087.028-.087.029-.087.03-.087.031-.087.032-.086.033-.086.033-.086.034-.086.035-.085.036-.085.037-.085.038-.085.039-.084.04-.084.041-.083.042-.083.043-.083.043-.083.044-.082.045-.082.046-.082.047-.081.048-.081.049-.08.05-.08.051-.079.051-.079.052-.079.053-.078.054-.078.055-.077.056-.077.056-.076.057-.076.058-.075.059-.075.06-.074.061-.074.061-.073.062-.073.063-.072.064-.072.065-.071.066-.07.066-.07.067-.069.068-.069.069-.068.069-.067.07-.067.071-.066.072-.065.072-.065.073-.064.074-.063.075-.063.075-.062.076-.061.077-.061.077-.06.078-.059.079-.059.079-.058.08-.057.081-.056L17.594,15l.082-.055.083-.054.083-.053.084-.053.085-.052.085-.051.086-.05.086-.049.087-.049.087-.048.088-.047.089-.046.089-.045.09-.044.09-.044.091-.043.091-.042.092-.041.092-.04.093-.039.093-.038.094-.037.094-.037.095-.036.1-.035.1-.034.1-.033.1-.032.1-.031.1-.03.1-.029.1-.028.1-.027.1-.026.1-.026.1-.024.1-.023.1-.023.1-.022.1-.021.1-.02Zm1.242,7.26-1.153.275-.068-5.71-.054.012-.082.019-.082.02-.081.021-.081.022-.08.022-.08.023-.08.024-.08.025-.079.025-.079.026-.079.027-.078.028-.078.028-.077.029-.077.03-.077.031-.076.031-.076.032-.075.033-.075.034-.074.034-.074.035-.074.035-.073.036-.073.037-.072.038-.072.038-.071.039-.071.04-.07.04-.07.041-.07.042-.069.042-.068.043-.068.043-.067.044-.067.045-.066.045-.066.046-.065.046-.065.047-.064.048-.063.048-.063.049-.062.049-.062.05L18,16.956l-.061.051-.06.051-.059.052-.059.052-.058.053-.058.054-.057.054-.056.055-.056.055-.055.056-.054.056-.054.056-.053.057-.052.057-.052.058-.051.058-.05.059-.05.059-.049.059-.049.06-.048.06-.047.061-.046.061-.046.062-.045.062-.044.062-.044.063-.043.063-.042.063-.041.064-.041.064-.04.064-.039.065-.039.065-.038.065-.037.066-.036.066-.036.066-.035.066-.034.067-.034.067-.033.067-.032.068-.031.068-.03.068-.03.068-.029.068-.028.068-.028.069-.027.069-.026.069-.025.069-.025.069-.024.07-.023.07-.022.07-.022.07-.021.07-.02.07-.019.07-.019.071-.018.07-.017.071L15.489,21l-.016.071-.015.071-.014.071-.013.071-.013.071-.012.071L15.4,21.5l-.01.071-.01.071-.009.071-.008.071-.007.071-.007.071L15.339,22l-.005.071,0,.071,0,.071,0,.071,0,.071v.282l0,.07,0,.07,0,.07,0,.07,0,.07.005.07.006.07.006.069.007.069.008.069.009.069.009.069.01.069.011.068.011.068.012.068.013.068.014.068.014.067.015.067.016.067.016.067.017.066.018.066.018.066.019.066.019.065.02.065.021.065.021.064.022.064.023.064.023.063.024.063.025.063.025.063.026.062.026.062.027.062.028.061.028.061.029.06.029.06.03.06.03.059.031.059.032.059.032.058.033.058.033.057.034.057.035.057.035.056.035.056.036.055.036.055.037.055.037.054.038.054.039.053.039.052.04.052.04.052.041.051.041.051.042.05.042.05.042.049.043.049.043.048.044.048.044.047.045.047.045.046.045.046.046.045.046.045.047.044.047.044.047.043.048.043.048.042.049.042.049.041.049.04.05.04.05.039.05.039.051.038.051.038.051.037.052.037.052.036.052.035.052.035.053.034.053.034.053.033.053.032.054.032.054.031.054.031.054.03.055.03.055.029.055.028.055.028.056.027.056.027.056.026.056.026.056.025.057.024.057.024.057.023.057.022.057.022.057.021.057.021.058.02.058.019.058.019.058.018.058.018.058.017.058.016.058.016.058.015.058.015.058.014.058.013.059.013.059.012.059.012.059.011.059.01.059.01.059.009.059.009.059.008.059.007.059.007.059.006.059.006.059.005.059,0,.058,0,.059,0,.058,0,.058,0h.348l.058,0,.057,0,.057,0,.058,0,.057,0,.057,0,.057-.005.057-.006.057-.006.056-.007.056-.007.056-.008.056-.009.056-.009.056-.01.055-.01.055-.011.055-.011.055-.012.054-.012.054-.013.054-.013.054-.014.054-.014.053-.015.053-.015.053-.016.052-.016L23.3,28.7l.052-.017.052-.018.052-.018.051-.019.051-.019.051-.02.05-.02.05-.021.05-.021.05-.022.049-.022.049-.023.049-.023L24,28.417l.048-.024.047-.024.047-.025.047-.025.046-.026.046-.026.046-.026.045-.027.045-.027.045-.028.044-.028.044-.028.044-.029.043-.029.043-.03.042-.03.042-.03.042-.031.041-.031.041-.031.04-.032.04-.032.04-.032.039-.033.039-.033.038-.033.038-.034L25.2,27.6l.037-.034.037-.035.036-.035.036-.035.035-.036.035-.036.034-.036.034-.036.034-.037.033-.037.033-.037.032-.038.032-.038.032-.038.031-.038.031-.039.03-.039.03-.039.029-.039.029-.039.028-.04.028-.04.027-.04.027-.04.026-.04.026-.041.025-.041.025-.041.024-.041.024-.041.023-.042.023-.042.022-.042.022-.042.021-.042.021-.042.021-.042.02-.043.02-.042.019-.043.019-.043.018-.043.018-.043.017-.043.017-.043.016-.044.016-.043.015-.044.015-.044L26.5,25.6l.014-.044.013-.043.013-.044.012-.043.012-.044.011-.043.011-.044.01-.044.01-.044.009-.044.009-.044.008-.044.008-.044.008-.044.007-.044.007-.044.006-.044.006-.044.005-.044,0-.044,0-.044,0-.043,0-.044,0-.044,0-.043,0-.043v-.3l0-.043,0-.042,0-.043,0-.042,0-.042,0-.042,0-.042,0-.042-.005-.042-.006-.041-.006-.042-.006-.041-.007-.041-.007-.041-.008-.041-.008-.04-.009-.041-.009-.04-.009-.04-.01-.04-.01-.039-.011-.04-.011-.039-.011-.039-.012-.039-.012-.039-.013-.038L26.5,23.02l-.013-.038-.014-.038-.014-.038-.014-.038-.015-.037-.015-.037-.015-.036-.016-.037-.016-.036-.017-.036-.017-.036-.017-.035-.017-.035-.018-.035-.018-.035-.018-.034-.019-.034-.019-.034-.019-.034-.02-.033-.02-.033-.02-.033-.021-.032-.021-.032-.021-.032-.021-.032-.022-.031L26,22.048l-.022-.031-.023-.03-.023-.03-.023-.03-.023-.03-.024-.029-.024-.029-.024-.029-.024-.028-.024-.028-.025-.028-.025-.027-.025-.027-.025-.027-.026-.026-.026-.026-.026-.026-.026-.025-.026-.025-.027-.025-.027-.024-.027-.024-.027-.024-.028-.023-.028-.023-.028-.023-.028-.022-.028-.022-.028-.022-.028-.021-.029-.021-.029-.021-.029-.02-.029-.02-.029-.019-.029-.019-.03-.019-.03-.018-.03-.018-.03-.018-.03-.017-.03-.017-.03-.017L24.811,21l-.03-.016-.031-.016-.03-.015-.031-.015-.031-.015-.031-.014L24.6,20.9l-.031-.014-.031-.013-.031-.013-.031-.013-.031-.012-.031-.012-.031-.011-.031-.011-.031-.011-.031-.01-.031-.01-.031-.01-.031-.009-.031-.009-.032-.009-.031-.008-.031-.008-.031-.008L24,20.7l-.031-.007-.031-.007-.031-.006-.031-.006-.031-.006-.031-.005-.031,0-.031,0-.031,0-.031,0-.031,0-.031,0-.031,0-.031,0-.031,0-.031,0-.031,0h-.3l-.03,0-.029,0-.029,0-.029,0-.029,0-.029,0-.029,0-.029,0-.029,0-.029,0-.028,0-.028,0-.028.005-.028.006-.028.006-.028.006Z" fill-rule="evenodd"/>
  </g>
</svg>
