<svg xmlns="http://www.w3.org/2000/svg" width="166.671" height="38.139" viewBox="0 0 166.671 38.139">
  <g id="logoipsum-logo-77" transform="translate(-3.468 -3.416)">
    <path id="Path_14440" data-name="Path 14440" d="M51.737,14.161h4.21V31.219h-4.21Zm5.879,10.617c0-4.219,2.582-6.736,6.567-6.736s6.567,2.517,6.567,6.736-2.526,6.75-6.567,6.75S57.617,29.067,57.617,24.778Zm8.91,0c0-2.32-.912-3.684-2.343-3.684s-2.329,1.406-2.329,3.684.884,3.656,2.329,3.656,2.343-1.294,2.343-3.642Zm5.809,7.27h4.041a2.174,2.174,0,0,0,2.273,1.266c1.6,0,2.442-.872,2.442-2.137V28.814h-.084a3.984,3.984,0,0,1-3.831,2.306c-3.073,0-5.108-2.348-5.108-6.384s1.937-6.581,5.164-6.581a4.027,4.027,0,0,1,3.873,2.475V18.281h4.21v12.8c0,3.08-2.708,4.992-6.707,4.992-3.719,0-6.034-1.674-6.272-4.008Zm8.77-7.284c0-2.053-.94-3.347-2.428-3.347s-2.4,1.28-2.4,3.347.9,3.234,2.4,3.234,2.428-1.139,2.428-3.22Zm5.8,0c0-4.219,2.582-6.736,6.567-6.736s6.581,2.517,6.581,6.736-2.525,6.75-6.581,6.75S86.9,29.067,86.9,24.778Zm8.91,0c0-2.32-.912-3.684-2.343-3.684S91.21,22.5,91.21,24.792s.884,3.656,2.315,3.656,2.287-1.308,2.287-3.656Zm5.837-9.548a2.146,2.146,0,1,1,2.189,2.1,2.052,2.052,0,0,1-2.189-2.067Zm0,3.094h4.21V31.219h-4.21Zm19.491,6.455c0,4.219-1.866,6.624-5.066,6.624A4.012,4.012,0,0,1,112.146,29h-.084v6.356h-4.21V18.281h4.21v2.306h.084a4.028,4.028,0,0,1,3.9-2.489c3.228.056,5.15,2.475,5.15,6.694Zm-4.21,0c0-2.053-.94-3.361-2.413-3.361s-2.414,1.322-2.428,3.361.954,3.347,2.428,3.347,2.413-1.28,2.413-3.319Zm11.436-6.75c3.494,0,5.613,1.659,5.712,4.317h-3.831c0-.914-.758-1.491-1.923-1.491s-1.684.45-1.684,1.111.464.872,1.4,1.069l2.694.548c2.568.548,3.662,1.589,3.662,3.544,0,2.672-2.427,4.387-6.005,4.387s-5.922-1.716-6.1-4.345h4.056c.126.956.884,1.519,2.119,1.519s1.8-.408,1.8-1.083-.393-.816-1.4-1.027l-2.428-.52c-2.512-.52-3.831-1.856-3.831-3.825.028-2.531,2.287-4.177,5.767-4.177Zm20.081,13.177h-4.056v-2.4h-.084a3.662,3.662,0,0,1-3.732,2.686,4.483,4.483,0,0,1-4.715-4.852V18.281h4.209V25.65c0,1.533.786,2.348,2.091,2.348a2.146,2.146,0,0,0,1.618-.731,2.155,2.155,0,0,0,.515-1.7V18.281h4.21Zm2.034-12.909h4.07V20.77h.084a3.734,3.734,0,0,1,3.662-2.728,3.354,3.354,0,0,1,3.578,2.813h.085a3.958,3.958,0,0,1,3.957-2.812,4.088,4.088,0,0,1,4.209,4.388v8.789h-4.209V23.555c0-1.406-.632-2.053-1.81-2.053a1.842,1.842,0,0,0-1.774,1.3,1.865,1.865,0,0,0-.065.779v7.636h-4V23.5c0-1.294-.631-2-1.782-2a1.885,1.885,0,0,0-1.8,1.323,1.9,1.9,0,0,0-.071.787v7.608h-4.21Z"/>
    <path id="Path_14441" data-name="Path 14441" d="M39.964,14.934a18.634,18.634,0,0,0-2.806-4.528A19,19,0,1,0,10.945,37.575a18.357,18.357,0,0,0,4.49,2.573,18.753,18.753,0,0,0,7.114,1.406,19.044,19.044,0,0,0,17.414-26.62ZM22.536,7.3A15,15,0,0,1,28.879,8.7a6.15,6.15,0,0,1-1.516.436,8.049,8.049,0,0,0-6.806,6.82,4.214,4.214,0,0,1-3.8,3.727,8.049,8.049,0,0,0-6.806,6.82,4.1,4.1,0,0,1-1.109,2.447A15.177,15.177,0,0,1,22.55,7.27Zm-11.6,25.045c.168-.155.337-.3.505-.464a7.712,7.712,0,0,0,2.273-4.542,4.11,4.11,0,0,1,1.221-2.559,3.968,3.968,0,0,1,2.54-1.209,8.049,8.049,0,0,0,6.806-6.82A4.11,4.11,0,0,1,25.5,14.063,4.023,4.023,0,0,1,28.065,12.9a7.683,7.683,0,0,0,4.21-2.011,14.771,14.771,0,0,1,3.312,3.909,1.211,1.211,0,0,1-.182.2,4.024,4.024,0,0,1-2.54,1.238,8.021,8.021,0,0,0-6.806,6.82,4.214,4.214,0,0,1-3.775,3.769,8.091,8.091,0,0,0-6.848,6.82,4.423,4.423,0,0,1-.688,1.927A15.291,15.291,0,0,1,10.931,32.344Zm11.6,5.428a15.185,15.185,0,0,1-4.21-.591,8.14,8.14,0,0,0,.9-2.812A4.214,4.214,0,0,1,22.985,30.6a8.049,8.049,0,0,0,6.82-6.82,4.214,4.214,0,0,1,3.761-3.769A8,8,0,0,0,37.158,18.6,15.2,15.2,0,0,1,22.536,37.7Z"/>
  </g>
</svg>
