<svg xmlns="http://www.w3.org/2000/svg" width="94.61" height="45" viewBox="0 0 94.61 45">
  <g id="logoipsum-logo-4" transform="translate(-2.585 -2.5)">
    <path id="Path_14452" data-name="Path 14452" d="M2.585,29.517H5.418V43.407H2.585Z"/>
    <path id="Path_14453" data-name="Path 14453" d="M7.061,38.648A5.043,5.043,0,1,1,12.1,43.681a4.986,4.986,0,0,1-5.043-5.033Zm7.233,0A2.191,2.191,0,1,0,12.1,40.9a2.134,2.134,0,0,0,2.191-2.247Z"/>
    <path id="Path_14454" data-name="Path 14454" d="M28.535,33.889v9.046c0,3.2-2.5,4.552-5.033,4.552a4.863,4.863,0,0,1-4.5-2.3l2.436-1.407a2.172,2.172,0,0,0,2.125,1.2,1.889,1.889,0,0,0,2.191-2.04v-.878a3.362,3.362,0,0,1-2.776,1.237,4.835,4.835,0,1,1,0-9.67,3.39,3.39,0,0,1,2.776,1.237v-.944Zm-2.786,4.57a2.3,2.3,0,1,0-2.3,2.21,2.153,2.153,0,0,0,2.3-2.21Z"/>
    <path id="Path_14455" data-name="Path 14455" d="M30.168,38.648a5.043,5.043,0,1,1,5.043,5.033,4.986,4.986,0,0,1-5.043-5.033Zm7.233,0A2.191,2.191,0,1,0,35.211,40.9a2.134,2.134,0,0,0,2.172-2.247Z"/>
    <path id="Path_14456" data-name="Path 14456" d="M41.566,31.339a1.728,1.728,0,1,1,.506,1.213A1.719,1.719,0,0,1,41.566,31.339Zm.293,2.55h2.833v9.519H41.859Z"/>
    <path id="Path_14457" data-name="Path 14457" d="M57.043,38.648A4.778,4.778,0,0,1,52.5,43.681a3.617,3.617,0,0,1-2.833-1.161v4.722H46.835V33.889h2.833v.9A3.617,3.617,0,0,1,52.5,33.624a4.778,4.778,0,0,1,4.542,5.024Zm-2.833,0a2.266,2.266,0,1,0-2.323,2.323,2.172,2.172,0,0,0,2.3-2.323Z"/>
    <path id="Path_14458" data-name="Path 14458" d="M65.863,40.556c0,2.191-1.889,3.126-3.966,3.126a4.174,4.174,0,0,1-4.089-2.266l2.474-1.407A1.567,1.567,0,0,0,61.9,41.132c.689,0,1.029-.217,1.029-.595,0-1.048-4.722-.491-4.722-3.777,0-2.077,1.756-3.126,3.777-3.126a4.184,4.184,0,0,1,3.721,2.04l-2.484,1.3a1.407,1.407,0,0,0-1.284-.84c-.491,0-.793.189-.793.538C61.179,37.76,65.863,37.033,65.863,40.556Z"/>
    <path id="Path_14459" data-name="Path 14459" d="M76.288,33.889v9.519H73.455V42.52a3.258,3.258,0,0,1-2.72,1.161c-1.889,0-3.56-1.369-3.56-3.947V33.889h2.833v5.43a1.568,1.568,0,0,0,1.709,1.728c1.039,0,1.766-.6,1.766-1.955v-5.2Z"/>
    <path id="Path_14460" data-name="Path 14460" d="M92.662,37.571v5.836H89.829v-5.59c0-.944-.463-1.568-1.369-1.568s-1.492.671-1.492,1.794v5.364H84.135v-5.59c0-.944-.453-1.568-1.369-1.568s-1.483.671-1.483,1.794v5.364H78.45V33.888h2.833v.878a2.927,2.927,0,0,1,2.55-1.143,2.833,2.833,0,0,1,2.493,1.256,3.135,3.135,0,0,1,2.757-1.256C91.236,33.624,92.662,35.192,92.662,37.571Z"/>
    <path id="Path_14461" data-name="Path 14461" d="M95.08,33.832a2.115,2.115,0,1,0-2.115-2.115A2.115,2.115,0,0,0,95.08,33.832Z"/>
    <path id="Path_14462" data-name="Path 14462" d="M34.644,22.312a9.906,9.906,0,1,0-9.906-9.906A9.906,9.906,0,0,0,34.644,22.312Z"/>
    <path id="Path_14463" data-name="Path 14463" d="M56.789,22.312a9.906,9.906,0,1,0-9.906-9.906A9.906,9.906,0,0,0,56.789,22.312Z"/>
    <path id="Path_14464" data-name="Path 14464" d="M22.406,2.5H2.6V22.3h19.8Z"/>
  </g>
</svg>
