<svg xmlns="http://www.w3.org/2000/svg" width="152.895" height="34.353" viewBox="0 0 152.895 34.353">
  <g id="logoipsum-logo-6" transform="translate(-2.417 -2.824)">
    <path id="Path_14428" data-name="Path 14428" d="M18.217,7.824v-5H2.417V37.177h15.8v-5a12.177,12.177,0,1,1,0-24.353Z"/>
    <path id="Path_14429" data-name="Path 14429" d="M18.217,7.824V32.177a12.177,12.177,0,1,0,0-24.353Z"/>
    <path id="Path_14430" data-name="Path 14430" d="M39.288,10.882h3.537v17H39.288Z"/>
    <path id="Path_14431" data-name="Path 14431" d="M44.806,22.059a6.1,6.1,0,1,1,1.776,4.379,6.088,6.088,0,0,1-1.776-4.379Zm8.867,0a2.689,2.689,0,1,0-2.688,2.753,2.613,2.613,0,0,0,2.665-2.753Z"/>
    <path id="Path_14432" data-name="Path 14432" d="M71.112,16.235V27.306c0,3.906-3.066,5.565-6.167,5.565a5.9,5.9,0,0,1-5.53-2.823L62.4,28.329A2.678,2.678,0,0,0,65.063,29.8,2.354,2.354,0,0,0,67.7,27.306V26.235A4.167,4.167,0,0,1,64.3,27.741a5.882,5.882,0,1,1,0-11.765A4.167,4.167,0,0,1,67.7,17.482V16.306ZM67.7,21.823a2.831,2.831,0,1,0-2.83,2.706,2.637,2.637,0,0,0,2.83-2.706Z"/>
    <path id="Path_14433" data-name="Path 14433" d="M73.1,22.059a6.108,6.108,0,1,1,1.788,4.384A6.1,6.1,0,0,1,73.1,22.059Zm8.867,0A2.689,2.689,0,1,0,79.3,24.812a2.613,2.613,0,0,0,2.665-2.753Z"/>
    <path id="Path_14434" data-name="Path 14434" d="M87.1,13.118a2.1,2.1,0,1,1,2.1,2.094,2.12,2.12,0,0,1-2.1-2.094Zm.342,3.118H90.98V27.882H87.442Z"/>
    <path id="Path_14435" data-name="Path 14435" d="M106.12,22.059a5.891,5.891,0,0,1-5.624,6.177,4.391,4.391,0,0,1-3.538-1.424v5.753H93.421V16.235h3.537v1.094a4.38,4.38,0,0,1,3.538-1.412,5.885,5.885,0,0,1,5.624,6.141Zm-3.537,0a2.784,2.784,0,1,0-2.771,2.847,2.662,2.662,0,0,0,2.771-2.847Z"/>
    <path id="Path_14436" data-name="Path 14436" d="M116.885,24.388c0,2.682-2.358,3.823-4.858,3.823A5.119,5.119,0,0,1,107,25.435l3.042-1.718a1.909,1.909,0,0,0,1.969,1.377c.837,0,1.262-.259,1.262-.729,0-1.282-5.743-.6-5.743-4.635,0-2.541,2.146-3.812,4.575-3.812a5.121,5.121,0,0,1,4.623,2.482L113.689,20a1.721,1.721,0,0,0-1.568-1.024c-.613,0-.978.235-.978.647C111.143,20.965,116.885,20.082,116.885,24.388Z"/>
    <path id="Path_14437" data-name="Path 14437" d="M129.7,16.235V27.882h-3.538V26.788a4.023,4.023,0,0,1-3.325,1.447c-2.358,0-4.374-1.682-4.374-4.824V16.235H122v6.647a1.93,1.93,0,0,0,.53,1.529,1.939,1.939,0,0,0,1.51.589,2.063,2.063,0,0,0,2.17-2.353V16.235Z"/>
    <path id="Path_14438" data-name="Path 14438" d="M149.747,20.729v7.153h-3.538V21.035c0-1.177-.554-1.906-1.674-1.906s-1.828.812-1.828,2.188v6.565H139.17V21.035c0-1.177-.554-1.906-1.674-1.906s-1.828.812-1.828,2.188v6.565h-3.537V16.235h3.537v1.071a3.614,3.614,0,0,1,3.137-1.388,3.457,3.457,0,0,1,3.053,1.529,3.853,3.853,0,0,1,3.385-1.529C148,15.918,149.747,17.824,149.747,20.729Z"/>
    <path id="Path_14439" data-name="Path 14439" d="M152.718,16.165a2.588,2.588,0,1,0-2.594-2.588A2.591,2.591,0,0,0,152.718,16.165Z"/>
  </g>
</svg>
