<svg xmlns="http://www.w3.org/2000/svg" xmlns:xlink="http://www.w3.org/1999/xlink" width="1920" height="66.089" viewBox="0 0 1920 66.089">
  <defs>
    <clipPath id="clip-path">
      <rect id="Rectangle_4850" data-name="Rectangle 4850" width="1920" height="66.089" fill="#096958"/>
    </clipPath>
  </defs>
  <g id="Group_15088" data-name="Group 15088" transform="translate(0)">
    <g id="Group_15087" data-name="Group 15087" transform="translate(0 0)" clip-path="url(#clip-path)">
      <path id="Path_22902" data-name="Path 22902" d="M0,0V26.22s44.021-3.884,113.778-1.214c32.508,1.457,68.4,6.069,107.005,8.983s71.111,3.642,81.27,3.884c39.958.486,74.5-1.214,96.169-2.185,51.471-2.185,89.4-8.5,115.132-11.411,26.413-2.913,61.63-4.613,71.111-4.856,89.4-1.942,306.794,37.631,426.667,38.359,112.423.728,203.175-14.809,247.873-22.578,39.958-6.8,43.344-7.283,121.9-17.966s226.2,8.983,302.73,13.838c56.211,3.642,95.492,4.37,141.545,3.642C1870.561,33.989,1920,23.55,1920,23.55V0ZM175.407,26.463c-22.349-2.671-23.7-2.671-38.6-3.884-29.122-2.428-82.624-1.457-84.656-1.7-2.709-.243,49.439-2.428,76.529-.486,16.254.971,35.217,2.428,52.825,4.856s31.153,2.428,30.476,2.913c-.677.728-14.222.971-36.571-1.7M256,32.29c-8.127-.243-23.7-2.185-22.349-2.185s14.222.971,25.058.728c10.159-.243,10.836.243,10.836.971s-5.418.728-13.545.486m199.788-5.827c-10.836,1.7-13.545,1.214-12.868.486s-.677-.486,10.836-1.457c10.836-.971,14.222-1.7,16.931-1.942s-4.064,1.214-14.9,2.913m29.122-10.2c-1.355-.243,21.672-3.884,33.185-5.1,10.836-.971,18.286-.728,18.286-.486s2.709.728-12.868,1.457c-15.577.971-37.249,4.37-38.6,4.127m66.37-.243c-33.185,2.428-54.18,6.069-56.889,6.312s39.958-7.526,75.175-8.983,41.989,0,41.989.728-27.09-.728-60.275,1.942m120.55-.971c-14.222-2.428-37.249-3.884-37.926-4.37s23.7.971,34.54,2.428c10.836,1.214,16.931,2.913,16.254,3.156s1.354,1.214-12.868-1.214m303.407,36.9C931.217,51.469,839.111,39.33,863.492,42s82.624,8.5,116.487,8.5c29.4,0,45.017.7,49.446.76-4.219.235-19.044,1.085-54.187.7m279.026-31.318c-11.513,1.7-99.555,15.052-125.291,16.995-16.254,1.214-14.9,1.942-51.471,3.884s-75.852.486-75.852,0c-.677-.243,33.185-.243,59.6-1.214,25.735-.971,53.5-3.4,67.725-4.856,35.217-3.4,136.8-16.509,125.291-14.809m94.138-3.884c-.677,0-14.222,1.457-34.54,4.37-20.995,2.913-46.053,7.526-44.7,7.283,1.354-.486,19.64-5.341,46.73-8.983s33.862-2.671,32.508-2.671m253.968,2.913c-20.995-1.214-61.63-4.856-83.979-6.555-54.18-4.127-113.778-2.428-119.2-2.671-4.741-.243,46.73-2.913,102.264-.243,32.508,1.7,80.593,6.555,102.265,8.5,21.672,1.7,37.926,2.185,37.926,2.185s-16.931.243-39.281-1.214m136.127,8.74c-19.64-.971-38.6-4.37-40.635-4.613s23.7,2.671,39.28,2.671,24.381-1.457,29.122.971c4.063,2.428-7.449,2.185-27.767.971m150.349-7.283a468.481,468.481,0,0,1-49.967,6.065c2.282-.233,26.961-3.389,45.227-6.55,19.64-3.4,31.83-5.827,32.508-6.069s-1.354,1.942-27.767,6.555" transform="translate(0 -0.001)" fill="#096958"/>
      <path id="Path_22903" data-name="Path 22903" d="M358.292,22.176c-49.439-1.7-115.132-7.769-112.423-7.041S338.652,22.662,361,23.147c33.185.971,46.73-.971,46.053-.971-.677-.243-31.154.728-48.762,0" transform="translate(1418.808 21.523)" fill="#096958"/>
      <path id="Path_22904" data-name="Path 22904" d="M295.76,8.083C245.644,6.626,207.718,10.753,205.687,11c-2.709.243,49.439-1.7,83.3-1.214s62.984,2.671,64.339,2.913-7.45-3.156-57.566-4.613" transform="translate(1186.737 11.096)" fill="#096958"/>
      <path id="Path_22905" data-name="Path 22905" d="M226.192,12.354c-8.127.243-22.349,2.428-21.672,2.671s12.868-1.214,24.381-.971c10.159.243,10.836-.243,10.836-.971s-5.418-.971-13.545-.728" transform="translate(1180.453 17.507)" fill="#096958"/>
      <path id="Path_22906" data-name="Path 22906" d="M229.922,15.949c-12.868,2.185-41.989,7.526-41.312,7.526.677.243,28.444-3.884,42.667-6.312s41.312-6.312,41.312-6.555-29.8,2.913-42.667,5.341" transform="translate(1088.681 15.126)" fill="#096958"/>
      <path id="Path_22907" data-name="Path 22907" d="M243.192,30.876c-49.439-1.7-115.132-7.769-112.423-7.041s92.783,7.526,115.132,8.012c33.185.971,46.73-.728,46.053-.971s-31.154.728-48.762,0" transform="translate(754.395 33.945)" fill="#096958"/>
      <path id="Path_22908" data-name="Path 22908" d="M106.239,21.917c-12.19-.243-34.54-1.214-45.376-.971S41.9,22.16,41.9,22.16a165.465,165.465,0,0,1,19.64-.243c11.513.486,39.28,2.185,55.534,1.7,28.444-.971,50.116-6.555,47.407-6.312-2.709,0-29.122,5.341-58.243,4.613" transform="translate(241.867 24.695)" fill="#096958"/>
      <path id="Path_22909" data-name="Path 22909" d="M95.915,11.289C85.08,12.5,74.244,14.93,75.6,15.173S89.143,13.231,104.72,12.5c15.577-.486,14.222-.728,14.222-1.214,0-.243-12.191-.971-23.027,0" transform="translate(435.725 15.416)" fill="#096958"/>
      <path id="Path_22910" data-name="Path 22910" d="M60.976,14.464C44.722,13.25,15.6,13.007,15.6,13.25c.677.243,29.122,1.214,44.7,2.671,16.254,1.457,34.54,3.642,34.54,3.4S77.23,15.678,60.976,14.464" transform="translate(90.051 18.796)" fill="#096958"/>
    </g>
  </g>
</svg>
