<svg xmlns="http://www.w3.org/2000/svg" width="23" height="23" viewBox="0 0 23 23">
  <g id="Group_15872" data-name="Group 15872" transform="translate(7297 6632)">
    <circle id="Ellipse_532" data-name="Ellipse 532" cx="11.5" cy="11.5" r="11.5" transform="translate(-7297 -6632)" fill="#8fe2c8"/>
    <g id="Layer_1" data-name="Layer 1" transform="translate(-7291.742 -6624.771)">
      <g id="check">
        <path id="Path_21529" data-name="Path 21529" d="M5,9.275a.647.647,0,0,1-.466-.2L.252,4.634a.7.7,0,0,1,.016-.948.642.642,0,0,1,.915-.017L5,7.625,12.11.258a.642.642,0,0,1,.915.017.7.7,0,0,1,.016.948L5.465,9.075A.647.647,0,0,1,5,9.275Z" transform="translate(-0.075 -0.075)" fill="#fff"/>
      </g>
    </g>
  </g>
</svg>
