<svg xmlns="http://www.w3.org/2000/svg" width="25" height="25" viewBox="0 0 25 25">
  <g id="Group_6" data-name="Group 6" transform="translate(-1056 -1433)">
    <g id="Path_21389" data-name="Path 21389" transform="translate(1056 1433)" fill="none">
      <path d="M12.5,0A12.5,12.5,0,1,1,0,12.5,12.5,12.5,0,0,1,12.5,0Z" stroke="none"/>
      <path d="M 12.5 1 C 9.428239822387695 1 6.54033088684082 2.196210861206055 4.368270874023438 4.368270874023438 C 2.196210861206055 6.54033088684082 1 9.428239822387695 1 12.5 C 1 15.5717601776123 2.196210861206055 18.45967102050781 4.368270874023438 20.63172912597656 C 6.54033088684082 22.80379104614258 9.428239822387695 24 12.5 24 C 15.5717601776123 24 18.45967102050781 22.80379104614258 20.63172912597656 20.63172912597656 C 22.80379104614258 18.45967102050781 24 15.5717601776123 24 12.5 C 24 9.428239822387695 22.80379104614258 6.54033088684082 20.63172912597656 4.368270874023438 C 18.45967102050781 2.196210861206055 15.5717601776123 1 12.5 1 M 12.5 0 C 19.40356063842773 0 25 5.596439361572266 25 12.5 C 25 19.40356063842773 19.40356063842773 25 12.5 25 C 5.596439361572266 25 0 19.40356063842773 0 12.5 C 0 5.596439361572266 5.596439361572266 0 12.5 0 Z" stroke="none" fill="#fff"/>
    </g>
    <g id="ARROW__x2F__RIGHT" transform="translate(1074.903 1441) rotate(90)">
      <g id="Group_1" data-name="Group 1">
        <path id="Path_2" data-name="Path 2" d="M8.971,7.346v0a.649.649,0,0,0-.2-.468h0L1.1.179l0,0a.651.651,0,1,0-.874.963L7.4,7.346,3.947,10.8h0a.651.651,0,0,0,.92.92h0l3.9-3.9h0a.649.649,0,0,0,.2-.468Z" fill="#fff"/>
      </g>
    </g>
  </g>
</svg>
