<svg xmlns="http://www.w3.org/2000/svg" width="197" height="185" viewBox="0 0 197 185">
  <path id="Union_19" data-name="Union 19" d="M192,182.5a2.5,2.5,0,1,1,2.5,2.5A2.5,2.5,0,0,1,192,182.5Zm-32,0a2.5,2.5,0,1,1,2.5,2.5A2.5,2.5,0,0,1,160,182.5Zm-32,0a2.5,2.5,0,1,1,2.5,2.5A2.5,2.5,0,0,1,128,182.5Zm-32,0a2.5,2.5,0,1,1,2.5,2.5A2.5,2.5,0,0,1,96,182.5Zm-32,0a2.5,2.5,0,1,1,2.5,2.5A2.5,2.5,0,0,1,64,182.5Zm-32,0a2.5,2.5,0,1,1,2.5,2.5A2.5,2.5,0,0,1,32,182.5Zm-32,0A2.5,2.5,0,1,1,2.5,185,2.5,2.5,0,0,1,0,182.5Zm192-30a2.5,2.5,0,1,1,2.5,2.5A2.5,2.5,0,0,1,192,152.5Zm-32,0a2.5,2.5,0,1,1,2.5,2.5A2.5,2.5,0,0,1,160,152.5Zm-32,0a2.5,2.5,0,1,1,2.5,2.5A2.5,2.5,0,0,1,128,152.5Zm-32,0a2.5,2.5,0,1,1,2.5,2.5A2.5,2.5,0,0,1,96,152.5Zm-32,0a2.5,2.5,0,1,1,2.5,2.5A2.5,2.5,0,0,1,64,152.5Zm-32,0a2.5,2.5,0,1,1,2.5,2.5A2.5,2.5,0,0,1,32,152.5Zm-32,0A2.5,2.5,0,1,1,2.5,155,2.5,2.5,0,0,1,0,152.5Zm192-30a2.5,2.5,0,1,1,2.5,2.5A2.5,2.5,0,0,1,192,122.5Zm-32,0a2.5,2.5,0,1,1,2.5,2.5A2.5,2.5,0,0,1,160,122.5Zm-32,0a2.5,2.5,0,1,1,2.5,2.5A2.5,2.5,0,0,1,128,122.5Zm-32,0a2.5,2.5,0,1,1,2.5,2.5A2.5,2.5,0,0,1,96,122.5Zm-32,0a2.5,2.5,0,1,1,2.5,2.5A2.5,2.5,0,0,1,64,122.5Zm-32,0a2.5,2.5,0,1,1,2.5,2.5A2.5,2.5,0,0,1,32,122.5Zm-32,0A2.5,2.5,0,1,1,2.5,125,2.5,2.5,0,0,1,0,122.5Zm192-30a2.5,2.5,0,1,1,2.5,2.5A2.5,2.5,0,0,1,192,92.5Zm-32,0a2.5,2.5,0,1,1,2.5,2.5A2.5,2.5,0,0,1,160,92.5Zm-32,0a2.5,2.5,0,1,1,2.5,2.5A2.5,2.5,0,0,1,128,92.5Zm-32,0A2.5,2.5,0,1,1,98.5,95,2.5,2.5,0,0,1,96,92.5Zm-32,0A2.5,2.5,0,1,1,66.5,95,2.5,2.5,0,0,1,64,92.5Zm-32,0A2.5,2.5,0,1,1,34.5,95,2.5,2.5,0,0,1,32,92.5Zm-32,0A2.5,2.5,0,1,1,2.5,95,2.5,2.5,0,0,1,0,92.5Zm192-30a2.5,2.5,0,1,1,2.5,2.5A2.5,2.5,0,0,1,192,62.5Zm-32,0a2.5,2.5,0,1,1,2.5,2.5A2.5,2.5,0,0,1,160,62.5Zm-32,0a2.5,2.5,0,1,1,2.5,2.5A2.5,2.5,0,0,1,128,62.5Zm-32,0A2.5,2.5,0,1,1,98.5,65,2.5,2.5,0,0,1,96,62.5Zm-32,0A2.5,2.5,0,1,1,66.5,65,2.5,2.5,0,0,1,64,62.5Zm-32,0A2.5,2.5,0,1,1,34.5,65,2.5,2.5,0,0,1,32,62.5Zm-32,0A2.5,2.5,0,1,1,2.5,65,2.5,2.5,0,0,1,0,62.5Zm192-30a2.5,2.5,0,1,1,2.5,2.5A2.5,2.5,0,0,1,192,32.5Zm-32,0a2.5,2.5,0,1,1,2.5,2.5A2.5,2.5,0,0,1,160,32.5Zm-32,0a2.5,2.5,0,1,1,2.5,2.5A2.5,2.5,0,0,1,128,32.5Zm-32,0A2.5,2.5,0,1,1,98.5,35,2.5,2.5,0,0,1,96,32.5Zm-32,0A2.5,2.5,0,1,1,66.5,35,2.5,2.5,0,0,1,64,32.5Zm-32,0A2.5,2.5,0,1,1,34.5,35,2.5,2.5,0,0,1,32,32.5Zm-32,0A2.5,2.5,0,1,1,2.5,35,2.5,2.5,0,0,1,0,32.5Zm192-30A2.5,2.5,0,1,1,194.5,5,2.5,2.5,0,0,1,192,2.5Zm-32,0A2.5,2.5,0,1,1,162.5,5,2.5,2.5,0,0,1,160,2.5Zm-32,0A2.5,2.5,0,1,1,130.5,5,2.5,2.5,0,0,1,128,2.5Zm-32,0A2.5,2.5,0,1,1,98.5,5,2.5,2.5,0,0,1,96,2.5Zm-32,0A2.5,2.5,0,1,1,66.5,5,2.5,2.5,0,0,1,64,2.5Zm-32,0A2.5,2.5,0,1,1,34.5,5,2.5,2.5,0,0,1,32,2.5ZM0,2.5A2.5,2.5,0,1,1,2.5,5,2.5,2.5,0,0,1,0,2.5Z" fill="#088770"/>
</svg>
