<svg xmlns="http://www.w3.org/2000/svg" width="15" height="15" viewBox="0 0 15 15">
  <g id="Layer_2" data-name="Layer 2" transform="translate(0 -0.005)">
    <g id="Layer_1" data-name="Layer 1" transform="translate(0 0.005)">
      <g id="favorite" transform="translate(0 0)">
        <path id="Path_21638" data-name="Path 21638" d="M7.5,15l-.275-.134a16.523,16.523,0,0,1-3.585-2.557A10.288,10.288,0,0,1,0,4.849,4.861,4.861,0,0,1,2.586.522,4.586,4.586,0,0,1,7.5.957,4.586,4.586,0,0,1,12.414.522,4.861,4.861,0,0,1,15,4.849a10.325,10.325,0,0,1-3.641,7.47,16.521,16.521,0,0,1-3.585,2.551Z" transform="translate(0 -0.005)" fill="#717d79"/>
      </g>
    </g>
  </g>
</svg>
