<svg xmlns="http://www.w3.org/2000/svg" xmlns:xlink="http://www.w3.org/1999/xlink" width="27" height="20" viewBox="0 0 27 20">
  <defs>
    <clipPath id="clip-path">
      <rect id="Rectangle_5127" data-name="Rectangle 5127" width="27" height="20" transform="translate(0 0)" fill="#00a773"/>
    </clipPath>
  </defs>
  <g id="Group_15846" data-name="Group 15846" transform="translate(0 0)">
    <g id="Group_15845" data-name="Group 15845" clip-path="url(#clip-path)">
      <path id="Path_24830" data-name="Path 24830" d="M12.682,11.875a1.138,1.138,0,0,0,1.633,0c1.913-1.7,8.415-7.156,12.121-10.255a.55.55,0,0,0,.079-.767A2.243,2.243,0,0,0,24.75,0H2.25A2.245,2.245,0,0,0,.484.856a.551.551,0,0,0,.079.767c3.706,3.1,10.208,8.552,12.119,10.252M26.673,3.3a.567.567,0,0,0-.6.081c-2.426,2.031-5.624,4.716-8.035,6.764a.551.551,0,0,0,.015.855c2.241,1.772,5.617,4.211,8.056,5.944a.57.57,0,0,0,.585.043A.554.554,0,0,0,27,16.5V3.806a.556.556,0,0,0-.327-.5M.891,16.946C3.33,15.213,6.707,12.774,8.947,11a.551.551,0,0,0,.015-.855C6.551,8.1,3.353,5.414.926,3.383a.57.57,0,0,0-.6-.081.555.555,0,0,0-.326.5V16.5a.554.554,0,0,0,.306.494.561.561,0,0,0,.256.061.568.568,0,0,0,.329-.1m16.137-5.331a.569.569,0,0,0-.724.013c-.508.437-.933.806-1.235,1.074a2.3,2.3,0,0,1-3.14,0c-.3-.267-.726-.637-1.234-1.073a.564.564,0,0,0-.723-.013C7.391,13.684,3.048,16.79.69,18.457a.55.55,0,0,0-.085.83A2.268,2.268,0,0,0,2.25,20h22.5a2.27,2.27,0,0,0,1.645-.713.553.553,0,0,0,.148-.434.561.561,0,0,0-.233-.4c-2.355-1.664-6.693-4.766-9.282-6.842" fill="#00a773"/>
    </g>
  </g>
</svg>
