<svg id="couple-family-icon" xmlns="http://www.w3.org/2000/svg" width="46.082" height="33.086" viewBox="0 0 46.082 33.086">
  <path id="Path_21383" data-name="Path 21383" d="M11.438,22.4a4.991,4.991,0,0,0,9.117.023,9.977,9.977,0,0,1-1.208-1.455c-.06-.086-.116-.173-.176-.259a4.745,4.745,0,0,1-3.18,1.024,4.836,4.836,0,0,1-3.551-1.549c-.131.36-.3.791-.473,1.2a6.712,6.712,0,0,1-.529,1.02Zm27.459.551c4.091,1.706,6.679,3.911,7.133,8.708.128,1.354.116,1.294-1.181,1.32-14.251.281-28.9,0-43.15,0-3.1-.236-1.189-5.6-.255-6.833a5.065,5.065,0,0,1,1.624-1.373c1.841-1.028,5.877-1.369,7.707-2.749a6.1,6.1,0,0,0,.473-.911c.229-.525.439-1.1.574-1.489a18.8,18.8,0,0,1-1.5-2.134L8.8,15.08a4.376,4.376,0,0,1-.859-2.2,1.73,1.73,0,0,1,.15-.788,1.441,1.441,0,0,1,.521-.6,1.78,1.78,0,0,1,.368-.188,38.61,38.61,0,0,1-.071-4.335A5.669,5.669,0,0,1,9.1,5.982a5.787,5.787,0,0,1,2.561-3.263,8.009,8.009,0,0,1,2.149-.956c.48-.135-.409-1.676.086-1.725,2.408-.248,6.3,1.95,7.98,3.769a5.888,5.888,0,0,1,1.485,3.716l-.1,3.926h0a1.092,1.092,0,0,1,.8.825,3.408,3.408,0,0,1-.416,2.07h0a.31.31,0,0,1-.026.049L21.893,17.24a14.786,14.786,0,0,1-2.119,2.921c.075.109.15.218.225.33a10.067,10.067,0,0,0,1.129,1.451.262.262,0,0,1,.049.064c1.335,1.016,3.349,1.47,5.059,2.044.78-.409,1.605-.791,2.524-1.17.191-.176.424-.386.671-.6a11.376,11.376,0,0,0,1.493-1.448c-.225-.225-.431-.461-.634-.7l-.859-.994-.641.015-1.223.034c-1.046-1.2-.983-3.8-.881-5.292.488-3,1.65-5.168,3.544-6.42C31.947,6.338,35.263,6.143,37,7.283c3.634,2.393,4.759,8.037,2.985,11.843H38.716l-.083.1-.113.131-.551.664a9.9,9.9,0,0,1-1.028,1.11,14.255,14.255,0,0,0,1.44,1.361c.18.165.356.319.514.461ZM9.094,12.192a.581.581,0,0,0-.218.251.9.9,0,0,0-.071.405,3.621,3.621,0,0,0,.724,1.759l.008.011h0l1.515,2.411a12.989,12.989,0,0,0,2.036,2.678,4.164,4.164,0,0,0,2.906,1.17,4.276,4.276,0,0,0,3.075-1.223,13.362,13.362,0,0,0,2.1-2.858l1.706-2.813a2.7,2.7,0,0,0,.36-1.5c-.1-.383-1.223-.236-1.6-.289l.585-2.588c-4.339.683-7.587-2.539-12.173-.645l.33,3.053c-.458.015-.848-.12-1.283.173Zm22.314,9.1A13.024,13.024,0,0,1,29.862,22.8l-.2.176c.173,3.233,7.328,4.2,8.108-.105a12.758,12.758,0,0,1-1.361-1.305l-.026.019a4.064,4.064,0,0,1-4.549.026,4.52,4.52,0,0,1-.428-.319Zm-1.646-2.6c-1.013-3.473-.63-6.66,2.1-9.39a6.367,6.367,0,0,0,3.409,3.8,17.846,17.846,0,0,1,2.558,2.351c.146-.6-.413-1.331-1.088-2.085a3.288,3.288,0,0,1,1.609,1.575,4.387,4.387,0,0,1,.311,2.828,6.475,6.475,0,0,1-.3.923.185.185,0,0,0-.071.06A12.62,12.62,0,0,1,36.1,21.11a4.012,4.012,0,0,1-3.986.026,6.945,6.945,0,0,1-1.354-1.3l-.915-1.076a.25.25,0,0,0-.086-.071Z" transform="translate(0.001 -0.019)" fill="#aeaeae" fill-rule="evenodd"/>
</svg>
