<svg id="couple-icon" xmlns="http://www.w3.org/2000/svg" width="42.574" height="33.086" viewBox="0 0 42.574 33.086">
  <path id="Path_21382" data-name="Path 21382" d="M0,33.081V27.922c2.467-1.1,12.119-3.52,12.729-6.6.274-1.389-.353-2.058-1.039-3.153L9.483,14.649c-.516-.828-.9-1.123-.894-2.141a12.348,12.348,0,0,1,.1-1.691,2.262,2.262,0,0,1,.561-1.292c.249-.381.218-.5.218-1.372V5.97c0-2.522.929-4.1,2.495-5,2.294-1.31,6.943-1.31,9.223.028,1.538.9,2.446,2.474,2.446,4.968V8.153c0,.981-.035,1.008.322,1.521a1.757,1.757,0,0,1,.423.915,10.987,10.987,0,0,1,.135,1.919c.014,1.019-.374,1.313-.89,2.141l1.6,1,.267-.388a3.918,3.918,0,0,0,.915-2.578,1.785,1.785,0,0,0,.007-.194H26.4c0-.381-.01-.755-.028-1.053a9.394,9.394,0,0,0-.139-1.2,2.858,2.858,0,0,0-.558-1.393c-.028-.049-.059-.094-.09-.142h0l-.042-.059L25.521,8.6h0l0-.007h0a.736.736,0,0,0,.014-.2V8.153h.007V5.97a10.126,10.126,0,0,0-.2-2.034C29.765.925,35.88,3.9,37.138,12.875c1.209,8.641,6.392,8.333-1.7,8.333H32.211c-.01,2.2-.357,3.326,1.926,4.56s8.436,1.867,8.436,4.993v2a.294.294,0,0,1-.295.291h-8.1V27.274c0-1.992-2.761-2.366-4.217-2.817-1.33-.409-2.9-.894-4.272-1.407.031-.54-.014-1.143-.017-1.843H22.354a.687.687,0,0,1-.107-.253,1.658,1.658,0,0,1,.4-1.2,1.326,1.326,0,0,0,.094-.135l-.059-.038h0l.059.035.215-.336.076-.111,0,0,2.124-3.388.087-.125-1.608-1.008-2.207,3.517c-.686,1.095-1.313,1.767-1.039,3.153.606,3.084,9.438,4.819,11.9,5.918v5.841L0,33.081Z" transform="translate(0 0.005)" fill="#aeaeae" fill-rule="evenodd"/>
</svg>
