<svg xmlns="http://www.w3.org/2000/svg" xmlns:xlink="http://www.w3.org/1999/xlink" width="27.002" height="27" viewBox="0 0 27.002 27">
  <defs>
    <clipPath id="clip-path">
      <rect id="Rectangle_5126" data-name="Rectangle 5126" width="27.002" height="27" transform="translate(0 0)" fill="#00a773"/>
    </clipPath>
  </defs>
  <g id="Group_15843" data-name="Group 15843" transform="translate(0 0)" clip-path="url(#clip-path)">
    <path id="Path_24829" data-name="Path 24829" d="M26.477,21.47l-2.994-2L20.822,17.7a1.179,1.179,0,0,0-1.582.257l-1.647,2.117a1.174,1.174,0,0,1-1.5.311,19.172,19.172,0,0,1-5.354-4.126,19.32,19.32,0,0,1-4.126-5.353,1.173,1.173,0,0,1,.311-1.5L9.044,7.762A1.179,1.179,0,0,0,9.3,6.18L7.581,3.6,5.531.525A1.18,1.18,0,0,0,3.944.168L1.58,1.587a2.886,2.886,0,0,0-1.312,1.7c-.647,2.357-.777,7.557,7.557,15.891s13.535,8.2,15.893,7.557a2.887,2.887,0,0,0,1.7-1.312l1.419-2.364a1.179,1.179,0,0,0-.357-1.587M15.363,4.19A7.923,7.923,0,0,1,23.277,12.1a.466.466,0,0,0,.931,0,8.854,8.854,0,0,0-8.845-8.845.466.466,0,1,0,0,.931m0,2.793A5.126,5.126,0,0,1,20.484,12.1a.466.466,0,0,0,.931,0,6.059,6.059,0,0,0-6.052-6.052.466.466,0,1,0,0,.931m0,2.793A2.331,2.331,0,0,1,17.691,12.1a.466.466,0,0,0,.931,0,3.263,3.263,0,0,0-3.259-3.259.466.466,0,1,0,0,.931" fill="#00a773"/>
  </g>
</svg>
