<svg id="photo-capture-icon" xmlns="http://www.w3.org/2000/svg" width="75.041" height="75.41" viewBox="0 0 75.041 75.41">
  <path id="Path_21388" data-name="Path 21388" d="M25.609,0a2.4,2.4,0,1,1,0,4.8H4.8V25.241a2.4,2.4,0,0,1-4.8,0V2.4A2.4,2.4,0,0,1,2.4,0ZM20.522,43.909a8.29,8.29,0,0,1,6.112-3.725H47.456a9.9,9.9,0,0,1,7.07,5.063V57.772h-34V43.909ZM37.232,17.643A9.936,9.936,0,1,1,27.3,27.579a9.937,9.937,0,0,1,9.936-9.936ZM49.432,4.8a2.4,2.4,0,1,1,0-4.8h23.21a2.4,2.4,0,0,1,2.4,2.4V25.241a2.4,2.4,0,0,1-4.8,0V4.8Zm0,70.611a2.4,2.4,0,1,1,0-4.8h20.81V50.169a2.4,2.4,0,0,1,4.8,0V73.01a2.4,2.4,0,0,1-2.4,2.4H49.432Zm-23.823-4.8a2.4,2.4,0,0,1,0,4.8H2.4A2.4,2.4,0,0,1,0,73.01V50.169a2.4,2.4,0,0,1,4.8,0V70.611Z" fill="#dcdcdc"/>
</svg>
