<svg xmlns="http://www.w3.org/2000/svg" width="116.724" height="109.851" viewBox="0 0 116.724 109.851">
  <path id="student-boy-icon" d="M34.673,28.932l.16-5.877,19.476,5.624a24.579,24.579,0,0,0,10.551,0L83.462,23v6.552a64.364,64.364,0,0,1-.388,9.721A11,11,0,0,1,81.846,43.4a2.568,2.568,0,0,1,.5.3c2.008,1.518,1.874,5.471,1.42,7.69a10.357,10.357,0,0,1-1.375,3.538,4.759,4.759,0,0,1-3.03,2.22,30.378,30.378,0,0,1-6.741,12.744c.832,1.252,1.714,2.519,2.61,3.73,6.178,5.328,23.837,6.431,30.439,10.113a17.437,17.437,0,0,1,5.535,4.687c3.814,5.036,4.14,9.281,5.522,15.455-.337,3.6-2.378,5.665-6.39,5.973H6.39c-4.012-.308-6.053-2.376-6.39-5.973C1.382,97.7,1.708,93.459,5.522,88.423a17.437,17.437,0,0,1,5.535-4.687c6.269-3.5,22.5-4.667,29.418-9.336,1.081-1.4,2.2-3.037,3.2-4.5l.107-.155a47.1,47.1,0,0,1-4.619-6.114,16.929,16.929,0,0,1-1.9-3.408,15.888,15.888,0,0,1-.723-2.961l0-.157a4.821,4.821,0,0,1-2.811-2.17,10.268,10.268,0,0,1-1.37-3.5c-.476-2.291-.6-6.408,1.559-7.826a2.7,2.7,0,0,1,2.043-.376c.237.05-.575-1.685-.7-2.168-1.192-4.414-.691-7.692-.572-12.124Zm42,11.561c-5.827,1.995-13.795,2.77-17.146,2.93-3.333.16-14.082-1.113-20.121-3.292V52.578l-.014,1.739c-.039,3.8-.052,5.018,2.6,8.975l.9,1.293a25.888,25.888,0,0,0,7.82,7.35,15,15,0,0,0,8.7,2.1,15.628,15.628,0,0,0,8.022-3.1c3.677-2.688,7.76-8.369,8.811-12.867a26.118,26.118,0,0,0,.424-5.918V40.493ZM70.536,71.965a19.093,19.093,0,0,1-11.1,5.047c-5.243.394-9.862-1.865-13.644-5.275-1.236,1.553-2.521,3.344-3.673,4.785,5.886,13.774,29.195,14.166,32.5.869-1.416-1.662-2.795-3.572-4.081-5.426Zm9-24.435v6.693c1.092-.579,1.68-2.423,1.783-4.37.05-.456.139-4.163-.679-4.015C80.013,45.953,79.657,47.011,79.532,47.53Zm-42.96,6.693V47.53c-.128-.522-.479-1.578-1.1-1.692-.818-.148-.73,3.559-.679,4.015C34.985,51.643,35.578,53.483,36.572,54.224Zm-9.951-39.7V29h-.458a.571.571,0,0,0-.568.568V33.46a.572.572,0,0,0,.568.568h.458v1.363a1.263,1.263,0,0,0-1.026,1.233v0a1.263,1.263,0,0,0,1.256,1.256H29.1a1.261,1.261,0,0,0,1.256-1.256v0a1.261,1.261,0,0,0-1.026-1.233V34.027h.458a.571.571,0,0,0,.568-.568V29.568A.569.569,0,0,0,29.79,29h-.458V15.363l23.7,7.373a26.63,26.63,0,0,0,12.876,0l26.158-7.808,2.364-.707c2.948-1.2,2.211-4.033-.531-4.683L64.312.7a15.236,15.236,0,0,0-9.153,0L26.106,9.431c-3.157.768-3.784,3.693-.107,4.9l.622.194Z" transform="translate(0 0)" fill="#f3f5f7" fill-rule="evenodd"/>
</svg>
