<svg xmlns="http://www.w3.org/2000/svg" width="50.284" height="33.086" viewBox="0 0 50.284 33.086">
  <path id="education-group-icon" d="M21.1,23.364h0c1.567,1.412,8.539,2.455,10.265,3.416a2.864,2.864,0,0,1,.286.184,7.229,7.229,0,0,0,2.8-1.158,3.453,3.453,0,0,0-.188-.961,5.945,5.945,0,0,1-1.853-4.091c-1.158.123-1.346-4.468,0-2.913l-.078-.274a.949.949,0,0,1-.295-.589V14.068l4.472,1.367a5.9,5.9,0,0,0,2.537,0l4.681-1.35.078,2.864a1.587,1.587,0,0,1-.221.683,1.166,1.166,0,0,1-.409.344v.049c1.338-1.035.818,3.273-.454,3.163a5.122,5.122,0,0,1-1.391,3.486l-.2.2a2.59,2.59,0,0,0-.172.949h0c1.17,1.056,6.395,1.841,7.684,2.561,1.637.908,1.264,3.093,1.637,4.709H0c.483-2.136,0-5.1,2.173-6.293,2.381-1.322,8.4-1.739,10.265-3.416a4.619,4.619,0,0,0-.254-1.281,7.946,7.946,0,0,1-2.475-5.474c-1.526.151-1.8-5.986,0-3.94-.065-.229-.127-.442-.18-.642a1.387,1.387,0,0,1-.528-.9V7.191l6.137,1.874a8.183,8.183,0,0,0,3.478,0l6.415-1.853.106,3.9a2.168,2.168,0,0,1-.307.937,1.637,1.637,0,0,1-.671.516c-.033.127-.07.254-.11.389,1.792-1.379,1.076,4.353-.6,4.231a6.882,6.882,0,0,1-1.858,4.66l-.266.262a3.441,3.441,0,0,0-.225,1.264ZM45.718,12.42v3.093h.106a.135.135,0,0,1,.135.135v.937a.139.139,0,0,1-.135.139h-.11v.327a.3.3,0,0,1,.245.295h0a.3.3,0,0,1-.3.3h-.54a.3.3,0,0,1-.3-.3h0a.3.3,0,0,1,.25-.295v-.327h-.11a.139.139,0,0,1-.139-.139v-.937a.139.139,0,0,1,.139-.135h.11V12.624l-5.7,1.772a6.4,6.4,0,0,1-3.1,0l-6.289-1.878-.569-.172c-.708-.286-.532-.97.127-1.125L36.655,9.1a3.682,3.682,0,0,1,2.2,0l6.968,2.1c.761.184.908.888.025,1.178l-.147.045ZM27.74,4.785V9.171h.151a.188.188,0,0,1,.188.184V10.64a.188.188,0,0,1-.188.184H27.74v.45a.409.409,0,0,1,.34.409h0a.409.409,0,0,1-.409.409h-.749a.409.409,0,0,1-.409-.409h0a.409.409,0,0,1,.34-.409v-.45H26.7a.188.188,0,0,1-.188-.184V9.355a.188.188,0,0,1,.188-.184h.151V5.08L19.037,7.494a8.809,8.809,0,0,1-4.243,0L6.178,4.912,5.4,4.679c-.974-.409-.728-1.33.176-1.542l9.746-2.9a5.02,5.02,0,0,1,3.015,0L27.912,3.1c1.039.25,1.227,1.227.033,1.612l-.2.061Z" transform="translate(0 -0.004)" fill="#146af0" fill-rule="evenodd"/>
</svg>
