<svg xmlns="http://www.w3.org/2000/svg" xmlns:xlink="http://www.w3.org/1999/xlink" width="43.33" height="43.273" viewBox="0 0 43.33 43.273">
  <defs>
    <clipPath id="clip-path">
      <rect id="Rectangle_5133" data-name="Rectangle 5133" width="43.33" height="43.273" fill="#00c2ff"/>
    </clipPath>
  </defs>
  <g id="Group_15853" data-name="Group 15853" transform="translate(0 0)">
    <g id="Group_15852" data-name="Group 15852" transform="translate(0 0)" clip-path="url(#clip-path)">
      <path id="Path_24833" data-name="Path 24833" d="M21.665,0A21.636,21.636,0,1,0,43.33,21.636,21.652,21.652,0,0,0,21.665,0m10.78,16.779.015.689A15.174,15.174,0,0,1,9.107,30.23a11.206,11.206,0,0,0,1.274.077A10.725,10.725,0,0,0,17,28.028a5.34,5.34,0,0,1-4.983-3.7,5.427,5.427,0,0,0,1.005.092,5.343,5.343,0,0,0,1.405-.185,5.334,5.334,0,0,1-4.279-5.223v-.068a5.334,5.334,0,0,0,2.416.668,5.327,5.327,0,0,1-1.651-7.11,15.14,15.14,0,0,0,10.993,5.566A5.34,5.34,0,0,1,31,13.211a10.832,10.832,0,0,0,3.388-1.292,5.348,5.348,0,0,1-2.347,2.947,10.678,10.678,0,0,0,3.063-.838,10.765,10.765,0,0,1-2.663,2.75" transform="translate(0 0)" fill="#00c2ff"/>
    </g>
  </g>
</svg>
